<?xml version="1.0" encoding="UTF-8" standalone="no"?>
<svg
   width="1024"
   height="1024"
   version="1.1"
   id="svg895"
   sodipodi:docname="desktop_icon.svg"
   inkscape:export-filename="/home/depau/StudioProjects/ATCD-Choreography-Sync/atcd_choreo_sync/macos/Runner/Assets.xcassets/AppIcon.appiconset/app_icon_16.png"
   inkscape:export-xdpi="1.5"
   inkscape:export-ydpi="1.5"
   inkscape:version="1.1.2 (0a00cf5339, 2022-02-04, custom)"
   xmlns:inkscape="http://www.inkscape.org/namespaces/inkscape"
   xmlns:sodipodi="http://sodipodi.sourceforge.net/DTD/sodipodi-0.dtd"
   xmlns="http://www.w3.org/2000/svg"
   xmlns:svg="http://www.w3.org/2000/svg">
  <sodipodi:namedview
     id="namedview897"
     pagecolor="#505050"
     bordercolor="#ffffff"
     borderopacity="1"
     inkscape:pageshadow="0"
     inkscape:pageopacity="0"
     inkscape:pagecheckerboard="1"
     showgrid="false"
     inkscape:zoom="0.30141808"
     inkscape:cx="205.69437"
     inkscape:cy="97.870706"
     inkscape:window-width="1319"
     inkscape:window-height="2150"
     inkscape:window-x="0"
     inkscape:window-y="0"
     inkscape:window-maximized="1"
     inkscape:current-layer="svg895" />
  <defs
     id="defs889">
    <filter
       id="blur_shadow"
       x="-0.034951456"
       y="-0.034951456"
       width="1.0699029"
       height="1.0699029">
      <feGaussianBlur
         stdDeviation="12"
         id="feGaussianBlur886" />
    </filter>
  </defs>
  <path
     d="M924 355.412c0-9.782 0-18.35-.056-28.133-.049-8.241-.144-16.48-.368-24.716-.484-17.954-1.543-36.061-4.736-53.813-3.238-18.01-8.526-34.77-16.859-51.133a171.963 171.963 0 00-31.661-43.559 172.06 172.06 0 00-43.574-31.64c-16.381-8.335-33.159-13.621-51.188-16.858-17.755-3.188-35.867-4.245-53.82-4.73-8.243-.223-16.485-.317-24.73-.368-9.788-.06-19.576-.055-29.364-.055L553.997 100h-84.999l-111.637.407c-9.807 0-19.614-.005-29.421.055-8.262.051-16.52.145-24.778.368-17.995.485-36.148 1.543-53.945 4.735-18.053 3.236-34.857 8.52-51.259 16.849a172.405 172.405 0 00-43.667 31.644 171.994 171.994 0 00-31.718 43.551c-8.356 16.372-13.654 33.143-16.9 51.162-3.196 17.746-4.255 35.846-4.742 53.792-.222 8.237-.318 16.476-.368 24.716-.06 9.784-.563 21.937-.563 31.72v195.999l.508 112.429c0 9.796-.004 19.592.055 29.388.05 8.252.146 16.502.369 24.751.486 17.976 1.547 36.109 4.746 53.886 3.245 18.032 8.542 34.818 16.891 51.201a172.24 172.24 0 0031.722 43.619 172.444 172.444 0 0043.659 31.684c16.412 8.346 33.224 13.639 51.288 16.88 17.789 3.193 35.936 4.252 53.924 4.737 8.258.223 16.517.318 24.779.368 9.807.059 19.613.059 29.42.059h310.283c9.788 0 19.576 0 29.364-.059 8.245-.05 16.487-.145 24.73-.368 17.96-.486 36.078-1.546 53.841-4.741 18.018-3.241 34.788-8.532 51.159-16.873a172.004 172.004 0 0043.582-31.687 172.23 172.23 0 0031.659-43.612c8.337-16.391 13.625-33.184 16.865-51.229 3.19-17.77 4.248-35.896 4.733-53.865.223-8.25.318-16.5.367-24.751.056-9.796.056-19.592.056-29.388V355.412z"
     fill="rgba(0,0,0,0.3)"
     filter="url(#blur_shadow)"
     transform="translate(0 10)"
     id="path891" />
  <path
     d="M924 355.412c0-9.782 0-18.35-.056-28.133-.049-8.241-.144-16.48-.368-24.716-.484-17.954-1.543-36.061-4.736-53.813-3.238-18.01-8.526-34.77-16.859-51.133a171.963 171.963 0 00-31.661-43.559 172.06 172.06 0 00-43.574-31.64c-16.381-8.335-33.159-13.621-51.188-16.858-17.755-3.188-35.867-4.245-53.82-4.73-8.243-.223-16.485-.317-24.73-.368-9.788-.06-19.576-.055-29.364-.055L553.997 100h-84.999l-111.637.407c-9.807 0-19.614-.005-29.421.055-8.262.051-16.52.145-24.778.368-17.995.485-36.148 1.543-53.945 4.735-18.053 3.236-34.857 8.52-51.259 16.849a172.405 172.405 0 00-43.667 31.644 171.994 171.994 0 00-31.718 43.551c-8.356 16.372-13.654 33.143-16.9 51.162-3.196 17.746-4.255 35.846-4.742 53.792-.222 8.237-.318 16.476-.368 24.716-.06 9.784-.563 21.937-.563 31.72v195.999l.508 112.429c0 9.796-.004 19.592.055 29.388.05 8.252.146 16.502.369 24.751.486 17.976 1.547 36.109 4.746 53.886 3.245 18.032 8.542 34.818 16.891 51.201a172.24 172.24 0 0031.722 43.619 172.444 172.444 0 0043.659 31.684c16.412 8.346 33.224 13.639 51.288 16.88 17.789 3.193 35.936 4.252 53.924 4.737 8.258.223 16.517.318 24.779.368 9.807.059 19.613.059 29.42.059h310.283c9.788 0 19.576 0 29.364-.059 8.245-.05 16.487-.145 24.73-.368 17.96-.486 36.078-1.546 53.841-4.741 18.018-3.241 34.788-8.532 51.159-16.873a172.004 172.004 0 0043.582-31.687 172.23 172.23 0 0031.659-43.612c8.337-16.391 13.625-33.184 16.865-51.229 3.19-17.77 4.248-35.896 4.733-53.865.223-8.25.318-16.5.367-24.751.056-9.796.056-19.592.056-29.388V355.412z"
     fill="#fff"
     id="path893"
     style="fill:#000000;fill-opacity:1" />
  <path
     style="fill:#3bfffb;fill-opacity:1;stroke-width:0.84142"
     d="m 222.61478,645.59046 c 0,-0.91738 8.90055,-16.4239 17.96427,-31.29726 4.08923,-6.71032 17.35708,-29.05008 29.48411,-49.64387 32.38885,-55.00185 51.79042,-87.37826 52.69733,-87.93877 0.77166,-0.47693 47.3808,-8.8136 49.31711,-8.82104 1.0656,-0.003 5.15701,9.22766 10.25335,23.13543 1.86539,5.09059 6.20885,16.44981 9.65209,25.24264 3.44327,8.79287 9.20436,23.85421 12.80242,33.46967 3.59805,9.61544 6.67296,17.35157 6.83313,17.19142 0.38526,-0.38528 17.98588,-122.74111 17.98588,-125.03407 0,-1.12376 -0.54061,-1.78184 -1.47249,-1.79249 -0.80987,-0.009 -16.14267,2.51711 -34.0729,5.61416 -17.93024,3.09701 -32.84583,5.38556 -33.14576,5.08561 -0.63847,-0.63845 1.85753,-21.50435 3.11878,-26.07223 0.4741,-1.7171 1.22672,-3.12197 1.67249,-3.12197 0.44577,0 46.77156,-7.95143 102.94619,-17.66986 56.17463,-9.71843 102.93275,-17.66985 103.90694,-17.66985 2.11771,0 2.11116,-0.16983 0.47706,12.36786 -1.51421,11.61757 -2.6135,16.19152 -4.00878,16.67968 -0.55424,0.19399 -23.1581,4.15429 -50.23084,8.80084 -27.07274,4.64657 -50.0885,8.64404 -51.14613,8.88325 -2.51746,0.56945 -3.06675,2.2247 -4.73583,14.27142 -8.15429,58.85434 -16.85291,116.31077 -17.75327,117.26463 -1.06739,1.13081 -17.10853,4.30787 -30.28034,5.99728 -3.70225,0.47482 -13.92552,2.1573 -22.71838,3.7388 -18.03732,3.24423 -16.85838,3.46583 -19.47194,-3.65952 -2.90237,-7.91269 -3.62261,-9.36429 -4.88702,-9.84948 -1.15121,-0.44176 -65.64485,10.27444 -67.09834,11.14899 -1.05547,0.63508 -12.89606,19.78032 -22.56861,36.49153 -11.61261,20.06307 -16.37734,27.91378 -18.29491,30.14394 -1.18506,1.37829 -4.78307,2.27917 -18.81919,4.71207 -19.51492,3.38252 -18.40642,3.24212 -18.40642,2.33119 z m 13.71847,-9.23202 c 2.98224,-1.35141 5.68313,-5.6144 39.56826,-62.45346 20.00215,-33.55169 40.34282,-67.6068 45.20146,-75.67799 l 8.83391,-14.67495 18.37699,-3.16153 c 10.10736,-1.73886 18.58599,-3.37055 18.84144,-3.62599 1.57146,-1.57148 -2.58559,-1.23295 -18.10967,1.47465 -12.65861,2.20788 -18.75104,2.91184 -22.13213,2.55737 l -4.66534,-0.48911 -1.6417,3.67591 c -0.90295,2.02176 -8.03697,14.27783 -15.8534,27.23572 -7.81643,12.95791 -15.16665,25.2637 -16.33385,27.34621 -1.16719,2.0825 -8.63913,14.76695 -16.6043,28.18761 -7.96516,13.42069 -20.54979,34.62451 -27.96583,47.11963 -7.41603,12.4951 -13.31206,23.00233 -13.10224,23.34945 0.58053,0.96038 2.06945,0.73023 5.5864,-0.86352 z M 421.61686,560.4327 c 0.28927,-0.46802 1.46438,-7.56751 2.61139,-15.77667 1.14701,-8.20914 4.13254,-28.74605 6.63448,-45.63759 6.10025,-41.18487 7.5332,-53.4509 6.8087,-58.28223 -0.3285,-2.19063 -0.97506,-3.98293 -1.43681,-3.98293 -0.46173,0 -0.66982,0.28398 -0.46242,0.63106 0.45412,0.75996 0.20798,2.57019 -9.46263,69.59049 -4.20397,29.13484 -7.64358,53.2731 -7.64358,53.64064 0,0.96632 2.32986,0.82204 2.95087,-0.18286 z m -81.01621,-12.22365 c 12.05731,-2.10041 22.62739,-4.19623 23.48908,-4.65739 2.97979,-1.59477 4.34662,-4.72871 3.74014,-8.57564 -0.66823,-4.23868 -3.84566,-15.21314 -4.27914,-14.77964 -0.167,0.16697 0.28961,2.43493 1.01468,5.03988 1.67202,6.0072 1.04581,8.67972 -2.3077,9.84874 -1.93254,0.6737 -2.63591,0.64246 -2.84428,-0.12624 -1.16866,-4.31133 -6.33164,-19.17436 -9.22256,-26.54966 -3.16408,-8.07215 -3.74328,-8.99638 -5.78705,-9.23442 -1.98665,-0.23152 -2.73611,0.45436 -5.98416,5.47534 -2.0422,3.15691 -7.38112,12.17398 -11.86427,20.03791 -4.48314,7.86394 -8.49998,14.65778 -8.92629,15.09741 -0.92918,0.95825 -1.03731,3.82964 -0.14406,3.82569 0.34709,-0.002 9.33978,-1.51485 19.98376,-3.36291 10.64398,-1.84806 19.66183,-3.36135 20.03965,-3.36287 0.37782,-0.002 0.56714,1.00102 0.42072,2.22791 -0.4873,4.08266 -3.35086,5.18399 -21.59901,8.30699 -9.40041,1.60875 -17.98447,2.92503 -19.07568,2.92503 -1.09122,0 -2.21804,0.37863 -2.50406,0.84145 -0.89011,1.4402 3.18483,0.97084 25.85023,-2.97755 z m 29.96925,-108.5504 c 0.53707,-1.17873 0.97648,-3.63115 0.97648,-5.44984 0,-2.52074 0.44999,-3.58545 1.8932,-4.47947 1.04127,-0.645 44.11153,-8.43599 95.7117,-17.31329 51.60019,-8.8773 94.38647,-16.37631 95.08064,-16.66454 4.83803,-2.00859 -12.77473,0.78354 -95.92207,15.20634 -73.43253,12.73768 -94.36699,16.10511 -96.34276,15.49728 -6.08519,-1.87207 -5.7204,-1.89338 -4.93396,0.28812 0.39977,1.10903 0.65511,4.95084 0.56741,8.53741 -0.11778,4.81777 0.12165,6.52101 0.91671,6.52101 0.59189,0 1.51558,-0.96442 2.05265,-2.14315 z M 130.65903,617.92862 c -0.46732,-0.78028 1.18344,-13.35347 2.71471,-20.67679 1.08991,-5.21257 1.89229,-5.98532 7.03606,-6.77633 2.11471,-0.32521 3.31858,-0.15106 3.55115,0.51402 0.19351,0.55332 -0.49748,6.43308 -1.53554,13.06613 -1.29155,8.25278 -2.27982,12.27379 -3.13044,12.73695 -1.98034,1.07824 -8.18195,1.89405 -8.63594,1.13602 z m 6.77453,-15.10558 c 0.96195,-6.85518 0.71464,-8.72395 -1.15451,-8.72395 -1.40255,0 -1.39722,-0.0554 -0.29709,3.10035 0.56575,1.62291 0.61076,4.19512 0.12737,7.27764 -0.41119,2.62219 -0.48421,4.76759 -0.16225,4.76759 0.32196,0 0.99087,-2.88972 1.48647,-6.42163 z m 11.49953,6.33574 c 0.83285,-8.5639 2.76205,-19.36314 3.61065,-20.21173 1.15627,-1.15626 13.63036,-2.82276 14.51409,-1.93902 0.66671,0.66669 -1.251,16.09216 -2.94379,23.67898 -0.45476,2.03815 -3.3255,3.08719 -11.24786,4.11038 l -4.53846,0.58614 z m 8.33326,-5.17301 c 0.25569,-1.04125 0.71198,-3.78924 1.01398,-6.10663 0.46752,-3.58753 0.29491,-4.44347 -1.16207,-5.762 -2.49843,-2.26107 -3.79145,-1.02227 -2.18186,2.09036 0.97325,1.88203 1.16467,3.71641 0.74139,7.10432 -0.36012,2.88229 -0.25811,4.56718 0.27653,4.56718 0.46593,0 1.05635,-0.85194 1.31203,-1.89323 z m 15.70456,6.69939 c 0,-0.13324 0.54734,-4.65459 1.21633,-10.04738 1.28627,-10.36884 2.6627,-16.63574 3.6538,-16.63574 0.32898,0 5.07369,-0.7941 10.5438,-1.76463 5.47011,-0.97052 10.17885,-1.53141 10.46386,-1.2464 0.69253,0.69254 -2.9206,24.98575 -3.85511,25.92025 -1.15856,1.15857 -22.02268,4.73394 -22.02268,3.7739 z m 10.06746,-10.64079 c 0.47906,-0.89516 0.87102,-2.99701 0.87102,-4.67076 0,-2.7105 0.34498,-3.19401 3.15533,-4.42232 l 3.15533,-1.3791 -3.36569,-0.55503 c -1.85112,-0.30528 -4.40694,-0.84229 -5.67959,-1.19345 -2.56171,-0.7068 -2.7884,-0.1571 -1.1522,2.79372 0.76537,1.38036 0.896,3.05129 0.42754,5.46924 -0.371,1.91491 -0.69103,3.95496 -0.71118,4.53344 -0.0574,1.64809 2.33247,1.23104 3.29944,-0.57574 z m 21.33503,-0.26555 c 0.70379,-8.30722 2.28792,-18.67661 3.03882,-19.89158 0.67109,-1.08585 28.42899,-6.24644 30.12316,-5.60033 0.61587,0.23502 0.8847,1.34847 0.66184,2.74151 -0.20642,1.29025 -1.00531,6.78859 -1.77534,12.21851 -0.82902,5.84593 -1.87504,10.26679 -2.56462,10.8391 -0.91831,0.76212 -26.08235,5.73741 -29.24616,5.78239 -0.42351,0.007 -0.5278,-2.66547 -0.23772,-6.0896 z m 9.75416,-7.23862 c 0.43268,-1.68784 0.91485,-3.82607 1.07149,-4.75167 0.2352,-1.38986 1.41821,-1.88114 6.79523,-2.82199 3.58075,-0.62651 6.51045,-1.47846 6.51045,-1.89319 0,-0.97902 -1.98433,-0.95226 -7.69697,0.10368 -3.75968,0.69502 -5.24348,0.60582 -7.81828,-0.46999 -1.74784,-0.7303 -3.34848,-1.15725 -3.55698,-0.94879 -0.20849,0.20863 0.16229,1.67468 0.82393,3.25819 0.76659,1.83475 1.05034,4.46767 0.78219,7.25828 -0.36385,3.78663 -0.23657,4.30844 0.94074,3.85667 0.74884,-0.28749 1.71552,-1.90344 2.1482,-3.59128 z m -76.92629,-19.49143 c -0.52106,-0.84309 0.80872,-11.95409 2.23228,-18.6518 0.97748,-4.59895 1.68786,-5.3098 6.10239,-6.10644 l 3.27692,-0.59138 -0.57561,6.58197 c -0.96079,10.98672 -2.24078,17.07005 -3.75388,17.84095 -2.36924,1.20707 -6.76321,1.76623 -7.2821,0.9267 z m 5.45945,-20.63549 c -0.60797,-1.13599 -1.22457,-1.9463 -1.37021,-1.80065 -0.14565,0.14565 0.002,3.45816 0.32991,7.36115 l 0.59471,7.09637 0.77549,-5.29569 c 0.58524,-3.99652 0.5043,-5.80241 -0.3299,-7.36118 z m 12.64629,14.5501 c 0.0114,-6.8079 2.3265,-19.44538 3.75353,-20.48886 0.74643,-0.54581 3.4837,-1.25808 6.08283,-1.5828 2.59912,-0.32473 5.29219,-0.80782 5.98459,-1.0735 1.08129,-0.41495 1.1767,0.45664 0.6762,6.1773 -0.84262,9.63141 -2.21322,16.98878 -3.33071,17.87949 -0.78626,0.62668 -10.43054,2.66442 -12.61024,2.66442 -0.30919,0 -0.55948,-1.60924 -0.5562,-3.57605 z m 8.33854,-9.92812 c 1.24683,-5.81379 1.17128,-6.49154 -0.84376,-7.56997 -2.47496,-1.32454 -2.89028,-0.47267 -1.63053,3.34443 0.60158,1.82281 0.8616,4.47517 0.5778,5.89414 -0.28379,1.41896 -0.17818,2.57992 0.23469,2.57992 0.41285,0 1.16067,-1.91183 1.6618,-4.24852 z m 15.84972,8.24526 c -0.48028,-1.3051 2.94843,-22.16423 3.77992,-22.99572 1.10564,-1.10564 19.36303,-3.83841 20.18078,-3.02066 0.81174,0.81174 -1.38294,18.08706 -2.75691,21.70085 -0.8111,2.13339 -1.08471,2.22536 -12.16185,4.08834 -9.12233,1.53421 -8.56611,1.52022 -9.04194,0.22707 z m 10.7655,-12.2902 c 0.48517,-2.00777 1.57026,-4.0356 2.41131,-4.50628 1.29626,-0.72543 0.84288,-1.08813 -2.9767,-2.38119 -2.47824,-0.83896 -4.66609,-1.36515 -4.8619,-1.16934 -0.19581,0.1959 0.15568,1.39889 0.78111,2.67348 0.62544,1.27461 1.02854,3.9616 0.89577,5.97106 -0.20909,3.16463 -0.0333,3.61407 1.31343,3.3582 1.04511,-0.19844 1.84402,-1.49214 2.43698,-3.94593 z m 20.24007,7.59213 c -0.6122,-0.99056 1.1517,-16.51758 2.34441,-20.63712 l 0.98598,-3.40545 13.76475,-2.39798 c 7.57061,-1.31892 14.22492,-2.22142 14.78734,-2.00558 0.79656,0.30562 0.76165,2.31507 -0.15792,9.09028 -0.6493,4.78381 -1.54782,10.0892 -1.9967,11.78971 -0.91604,3.47024 0.27862,3.02854 -15.51036,5.73465 -5.55338,0.95183 -10.92579,1.91242 -11.93868,2.13472 -1.01291,0.2223 -2.03837,0.0858 -2.27881,-0.30307 z m 10.22318,-12.90709 1.10689,-3.91902 5.86117,-1.04747 c 3.22365,-0.57608 5.86118,-1.36543 5.86118,-1.75408 0,-0.87283 -3.48943,-0.85388 -8.12569,0.0442 -2.41202,0.46718 -4.33575,0.32518 -6.19692,-0.45737 -3.98195,-1.67426 -4.33996,-1.4429 -2.94252,1.90166 0.83089,1.98859 1.08337,4.19576 0.73159,6.39567 -0.47485,2.9695 -0.35534,3.32419 1.03013,3.05737 1.04603,-0.20131 1.93542,-1.60527 2.67417,-4.22086 z m 257.6829,5.89337 c -3.62594,-1.02415 -7.15514,-4.24928 -9.51233,-8.69282 -2.48012,-4.67527 -2.9437,-19.79287 -1.0321,-33.65685 5.03612,-36.52451 10.14059,-49.33922 23.42787,-58.81563 9.82223,-7.00514 17.32188,-8.82191 85.5478,-20.72397 30.07385,-5.24636 38.47085,-6.45411 39.20926,-5.63935 1.3471,1.48642 -2.93321,26.57178 -4.69928,27.54069 -0.69606,0.38186 -19.06007,3.76824 -40.80895,7.52531 -52.26657,9.02889 -58.3052,10.6573 -62.47709,16.84793 -3.83268,5.68733 -7.20342,21.18942 -7.29387,33.54465 -0.0607,8.29038 0.034,8.77373 2.03993,10.41464 1.93138,1.57991 2.86111,1.67941 11.35917,1.21552 5.09061,-0.27794 20.04688,-2.37575 33.23616,-4.66191 51.50513,-8.92775 56.30268,-9.70447 56.80944,-9.19771 0.57539,0.57539 -1.6132,18.1355 -3.04034,24.39418 -0.49325,2.16318 -1.42838,4.13705 -2.07805,4.38636 -1.9216,0.73738 -78.65577,13.9138 -88.88672,15.26321 -10.52017,1.38755 -27.31551,1.5226 -31.8009,0.25569 z m -2.89244,-24.4698 c 0.0557,-10.91315 1.74952,-22.23467 6.21236,-41.52171 3.0757,-13.29238 5.45066,-18.16993 11.79256,-24.21911 9.75155,-9.30134 15.45366,-10.94553 71.77657,-20.69633 21.6418,-3.74669 39.91116,-7.028 40.59858,-7.29178 2.18713,-0.83929 1.34308,-2.13556 -1.06402,-1.63411 -1.27267,0.26523 -19.92065,3.53085 -41.44002,7.25716 -71.12756,12.31654 -75.86863,13.71384 -80.66742,23.77445 -1.78573,3.74377 -6.84288,28.37814 -8.58593,41.82374 -1.3764,10.6172 -1.39664,25.67566 -0.0399,29.66013 0.59095,1.73543 1.13975,3.15515 1.21955,3.15495 0.0798,-1.9e-4 0.16874,-4.63851 0.19764,-10.30739 z m 82.8275,-3.92116 c 31.24548,-5.43211 37.38714,-6.78525 36.12503,-7.95911 -0.20068,-0.18669 -17.47654,2.62774 -38.39113,6.25391 -20.91455,3.62616 -41.73974,6.96245 -46.27816,7.41397 l -8.25171,0.82099 10.93851,-0.2296 c 9.10376,-0.19114 16.79542,-1.24774 45.85746,-6.30028 z m 58.33546,9.1212 c -0.584,-0.58401 -0.34686,-4.27851 0.74131,-11.54859 2.2917,-15.31102 2.75751,-16.77648 5.51763,-17.35711 1.26424,-0.26586 18.76942,-3.32609 38.90043,-6.80023 49.28088,-8.50478 59.82642,-11.26525 63.26724,-16.56119 2.98007,-4.58686 5.85823,-17.69122 7.00551,-31.89643 0.47221,-5.84755 0.3237,-7.7362 -0.77545,-9.86176 -2.09161,-4.04471 -4.01123,-4.66344 -12.65288,-4.07838 -5.96601,0.40394 -79.20486,12.46759 -87.78509,14.45965 -1.25742,0.29194 -2.08328,-0.003 -2.41294,-0.8623 -0.67768,-1.76608 3.01422,-25.29083 4.21283,-26.84345 0.65849,-0.85316 13.23085,-3.34297 40.67238,-8.05475 46.58758,-7.99926 61.63236,-10.11519 71.92118,-10.11519 6.58177,0 8.01167,0.2754 11.23273,2.16303 4.93476,2.89196 8.59848,7.21664 9.30527,10.98382 1.5759,8.40072 -0.94222,35.43756 -5.20183,55.84971 -3.20691,15.36778 -9.93769,27.06737 -19.14907,33.2854 -10.66267,7.19774 -24.22949,10.65417 -79.21917,20.183 -22.67631,3.92938 -42.01529,7.31742 -42.97552,7.52894 -0.96023,0.21147 -2.13227,-0.002 -2.60456,-0.47417 z m 9.65138,-10.20614 c 0.55534,-0.55536 1.00971,-2.4239 1.00971,-4.15236 0,-1.72842 0.33875,-4.0337 0.7529,-5.12285 0.71925,-1.89166 2.366,-2.25725 36.81219,-8.17232 47.6492,-8.18231 58.2904,-10.7736 64.97963,-15.82344 6.13227,-4.62938 10.54402,-21.18262 10.48596,-39.3437 -0.0194,-6.0162 -0.4298,-12.07443 -0.91236,-13.46277 -0.73767,-2.12226 -0.87675,-1.38525 -0.87306,4.62782 0.008,8.43869 -2.94076,25.74146 -5.28505,31.04097 -0.90806,2.05286 -3.25411,5.49124 -5.21353,7.64085 -1.95933,2.1496 -4.15612,5.02728 -4.88167,6.39485 -1.58945,2.99595 -9.18009,7.22838 -16.35067,9.1169 -2.7767,0.73131 -21.41957,4.17907 -41.42849,7.66167 -34.83619,6.06336 -36.51097,6.27736 -39.4657,5.04282 -1.69706,-0.70908 -3.26774,-1.10712 -3.49038,-0.88448 -0.22264,0.22261 0.069,1.54932 0.64874,2.94821 0.71402,1.72379 0.86447,4.30855 0.46699,8.02051 -0.46893,4.3785 -0.35374,5.47702 0.57427,5.47702 0.63847,0 1.61519,-0.45438 2.17052,-1.0097 z m 11.65857,-83.34281 c 0.35811,-0.57847 1.06204,-3.32364 1.56429,-6.10032 l 0.91328,-5.04852 37.40101,-6.50769 c 44.94125,-7.81966 58.53837,-9.88942 65.00731,-9.89546 3.04325,-0.002 4.69159,-0.32209 4.36781,-0.84599 -1.45742,-2.35817 -15.4134,-0.62059 -67.19095,8.36564 -37.49307,6.50708 -38.67628,6.65875 -41.89564,5.37061 -3.83369,-1.53395 -4.93502,-0.97469 -3.26472,1.65796 0.79203,1.24838 1.10689,3.8497 0.96292,7.95525 -0.20353,5.80559 0.55518,7.59998 2.13469,5.04852 z m -494.91656,91.87735 c -0.77574,-1.25515 2.93319,-24.62986 4.08142,-25.72225 0.5482,-0.52155 2.60594,-1.18865 4.57277,-1.48243 l 3.57604,-0.53418 0.003,2.74459 c 0.002,1.5095 -0.65195,7.2411 -1.45293,12.73688 -1.19194,8.17821 -1.7654,10.18366 -3.15873,11.04632 -2.38387,1.47589 -7.00455,2.21009 -7.62198,1.21107 z m 6.67739,-16.82342 c 0.42705,-3.41805 0.26001,-5.01806 -0.65448,-6.2687 -1.63726,-2.23909 -2.47343,-1.23031 -1.37497,1.65881 0.48344,1.27157 0.68418,4.82653 0.44607,7.89984 -0.50109,6.46762 0.66766,4.03919 1.58338,-3.28995 z m 11.37734,14.00117 c -0.91462,-0.91462 2.0163,-23.44886 3.32536,-25.56699 0.63735,-1.03127 13.62002,-3.73728 14.37905,-2.99709 0.86945,0.84787 -2.66022,24.33 -3.85601,25.65334 -0.68146,0.75411 -2.83081,1.61619 -4.77636,1.91572 -1.94554,0.29959 -4.67932,0.74932 -6.07504,0.99951 -1.39572,0.25027 -2.74437,0.24805 -2.997,-0.003 z m 8.98914,-16.2007 c 0.52175,-5.61384 0.43901,-6.05526 -1.31048,-6.99153 -2.57017,-1.37552 -3.09318,-0.4969 -1.62116,2.72354 0.85802,1.87716 1.06881,3.90126 0.67805,6.51046 -0.31188,2.0825 -0.38295,4.10337 -0.15793,4.49078 0.92542,1.59324 1.88724,-1.09232 2.41152,-6.73325 z m 15.39228,11.28774 c -0.36266,-4.47431 2.85485,-23.93133 4.17584,-25.25234 1.00878,-1.00879 18.53224,-4.20378 19.9894,-3.64461 1.16277,0.44621 1.16454,0.41806 -0.99066,15.79657 -1.05069,7.49726 -1.70705,9.95662 -2.76736,10.36915 -1.34546,0.52352 -18.27006,3.78302 -19.64284,3.78302 -0.37352,0 -0.71749,-0.47332 -0.76438,-1.05179 z m 9.35584,-9.48401 c 0.58434,-0.70406 1.21604,-2.67409 1.40379,-4.37777 0.37707,-3.42171 1.54299,-5.28055 3.3121,-5.28055 0.63751,0 1.15911,-0.37864 1.15911,-0.84142 0,-0.46278 -0.85194,-0.84375 -1.8932,-0.84663 -1.04126,-0.002 -2.99079,-0.57757 -4.33229,-1.27715 -3.07428,-1.60325 -3.60939,-1.06745 -2.36654,2.36958 0.58624,1.62123 0.77483,4.51403 0.4649,7.13094 -0.53694,4.53357 0.21551,5.57699 2.25213,3.123 z m 21.44636,4.65403 c -1.05463,-1.70639 2.45032,-24.30552 3.99754,-25.77533 1.42646,-1.35511 28.34389,-5.75026 29.30857,-4.7856 0.88683,0.88683 -2.74068,24.29932 -3.95268,25.51135 -1.05679,1.05677 -28.86463,5.84049 -29.35343,5.04958 z m 9.503,-10.27353 c 0.55534,-0.55532 1.01487,-1.97523 1.02119,-3.15533 0.028,-5.23579 0.59406,-5.77168 7.22635,-6.84156 3.42371,-0.5523 6.22491,-1.3309 6.22491,-1.73017 0,-0.94934 -2.95456,-0.91996 -8.23734,0.0818 -3.39289,0.64344 -4.79698,0.53996 -6.89867,-0.50851 -3.27403,-1.63331 -3.90473,-1.08473 -2.54023,2.20949 0.67985,1.64129 0.86143,4.07136 0.505,6.75832 -0.57623,4.34386 0.39467,5.49 2.69879,3.18587 z m 546.55789,-8.25962 c 0.92254,-9.92622 2.36439,-18.37772 3.36737,-19.73835 1.07601,-1.45968 29.06227,-6.75185 30.1096,-5.69368 0.70738,0.71472 -1.25238,17.72599 -2.63273,22.85198 -0.6537,2.42763 -1.46029,3.54326 -2.78342,3.84968 -3.32337,0.76957 -26.18597,4.63402 -27.41562,4.63402 -0.96957,0 -1.09082,-1.10916 -0.6452,-5.90365 z m 9.32161,-5.22208 c 0.72042,-1.02852 1.30983,-3.29315 1.30983,-5.03249 0,-3.4648 -0.60245,-3.1222 8.62458,-4.90387 2.66099,-0.51381 4.83817,-1.28599 4.83817,-1.71594 0,-1.00246 -1.12229,-0.98383 -7.08082,0.11766 -4.02216,0.74352 -5.45283,0.66449 -8.25308,-0.45595 -1.86308,-0.74543 -3.53448,-1.20833 -3.7142,-1.02862 -0.17965,0.17968 0.23349,1.66737 0.91807,3.30592 0.8453,2.02303 1.08132,4.35986 0.73532,7.28126 -0.55904,4.71986 0.39791,5.60744 2.62213,2.43201 z m 31.07605,3.16388 c -0.74652,-1.94525 2.10801,-22.47247 3.39901,-24.44271 0.91285,-1.39326 2.94455,-2.02279 10.28064,-3.18559 5.02868,-0.79704 9.66837,-1.44542 10.31045,-1.4408 0.94803,0.007 1.05826,1.31341 0.58647,6.95011 -0.70402,8.41001 -2.49204,18.11842 -3.5237,19.13172 -0.41499,0.4076 -4.35159,1.33978 -8.74802,2.07146 -4.39641,0.73173 -8.85376,1.52328 -9.90512,1.759 -1.23192,0.27604 -2.08529,-0.0223 -2.39973,-0.84319 z m 9.49881,-9.91838 c 0.36231,-0.57846 0.85799,-2.73962 1.10141,-4.80254 0.35904,-3.04332 0.80895,-3.83681 2.38535,-4.20708 2.68573,-0.63085 2.35042,-2.12099 -0.50022,-2.22336 -1.28906,-0.0461 -3.21466,-0.55023 -4.27913,-1.11992 -2.6191,-1.4017 -3.15863,-0.57756 -1.90027,2.90238 0.65445,1.8098 0.83923,4.35843 0.48659,6.71024 -0.46682,3.11275 -0.33439,3.79207 0.73935,3.79207 0.71934,0 1.60443,-0.4733 1.96692,-1.05179 z m 21.33272,2.21227 c 0.0218,-4.79981 2.341,-20.31023 3.30502,-22.11145 0.61483,-1.14884 2.59873,-1.82802 7.62269,-2.60956 3.73524,-0.58104 7.00854,-0.83934 7.27392,-0.57396 0.55281,0.55278 -1.10176,15.87389 -2.34967,21.75788 -0.95535,4.50478 -2.27301,5.26307 -10.82724,6.23086 l -5.04011,0.57023 0.0159,-3.264 z m 9.43318,-12.90452 c 0.95324,-5.1261 0.92034,-5.35363 -1.00045,-6.90896 -2.64636,-2.14293 -3.93794,-0.82129 -2.30525,2.35895 0.84218,1.64044 1.10235,3.88913 0.81433,7.0384 -0.58134,6.35676 1.17211,4.60534 2.49137,-2.48839 z m 14.95651,10.80169 c 0.0126,-4.18575 3.53204,-23.98975 4.41933,-24.87695 0.5974,-0.59744 2.91181,-1.33644 5.14327,-1.64231 l 4.05707,-0.55609 -0.58941,5.80499 c -1.03646,10.20691 -2.81161,19.08217 -4.06802,20.33857 -1.72289,1.72295 -8.96736,2.47618 -8.96224,0.93179 z m 7.15933,-15.14044 c 0.54457,-4.69168 0.0547,-8.31845 -1.12255,-8.31845 -0.31771,0 -0.57594,3.37073 -0.57435,7.49053 0,8.1326 0.80381,8.52318 1.6969,0.82792 z m -96.63222,-12.87857 c -0.62307,-1.62378 1.86156,-18.8363 3.10022,-21.47623 0.88728,-1.89115 2.07074,-2.24756 14.77419,-4.44919 7.59526,-1.31634 14.12031,-2.0827 14.49996,-1.70303 0.88131,0.88127 -2.16195,21.94374 -3.34086,23.12266 -0.48626,0.4863 -5.92454,1.76741 -12.08509,2.84688 -6.16047,1.07948 -12.38749,2.172 -13.83785,2.42785 -1.86434,0.32886 -2.77577,0.10367 -3.11057,-0.76894 z m 10.28294,-12.42751 1.16973,-3.83819 5.44804,-0.90278 c 2.99647,-0.49653 5.65697,-1.11168 5.91225,-1.36698 1.25919,-1.25916 -1.2061,-1.49544 -6.13228,-0.58776 -4.67494,0.86138 -5.83467,0.81645 -8.01386,-0.31038 -3.38404,-1.74996 -4.49908,-0.93822 -2.91613,2.12282 0.6925,1.33911 1.25903,3.99966 1.25903,5.9123 0,4.60806 1.7202,4.06732 3.27322,-1.02894 z m 30.7367,-0.79705 c 0.76687,-10.10944 1.68511,-14.90527 3.13059,-16.35072 1.49588,-1.49593 18.97187,-4.3542 19.96281,-3.26502 0.99145,1.08962 -2.08016,21.44882 -3.43662,22.77835 -0.59286,0.58112 -4.67494,1.66436 -9.07137,2.40717 -4.39641,0.74283 -8.71114,1.56624 -9.58832,1.82975 -1.51457,0.45506 -1.56471,0.083 -0.99709,-7.39953 z m 9.6633,-5.97496 c 0.76755,-2.5197 1.75538,-4.02889 2.81936,-4.30713 2.15286,-0.56299 1.24867,-1.90966 -1.67663,-2.49711 -1.27828,-0.25663 -3.40152,-0.73004 -4.71835,-1.05187 l -2.39418,-0.58512 1.3424,2.59591 c 0.73835,1.42775 1.34241,4.35014 1.34241,6.49421 0,5.01889 1.65844,4.69134 3.28499,-0.64889 z m 20.57865,4.61731 c 0.24838,-1.73542 0.68938,-5.42716 0.97976,-8.20383 0.88904,-8.50135 2.10161,-12.2497 4.22342,-13.05641 1.04985,-0.39919 4.25945,-0.99168 7.13231,-1.31673 l 5.22355,-0.59096 -0.57713,5.3785 c -0.8707,8.11444 -2.26368,16.14954 -3.0685,17.69988 -0.45546,0.87746 -2.67185,1.72316 -6.06396,2.31389 -8.31888,1.4487 -8.37314,1.4333 -7.84945,-2.22434 z m 8.42591,-8.72974 c 0.98901,-4.94498 0.61407,-8.20263 -1.04631,-9.09125 -2.24995,-1.20415 -2.76112,-0.21973 -1.32649,2.55453 0.83384,1.6125 1.06372,3.51068 0.70031,5.78324 -0.6431,4.02146 0.88156,4.70831 1.67249,0.75348 z m 16.5129,5.20782 c 0,-3.71559 2.55329,-19.77515 3.34861,-21.06202 0.35768,-0.57877 2.40108,-1.24965 4.54081,-1.49084 3.83175,-0.43186 3.89006,-0.4019 3.86406,1.98485 -0.0412,3.76842 -3.10889,20.62019 -3.89704,21.40722 -0.38739,0.38687 -2.31357,0.96048 -4.28039,1.27472 l -3.57605,0.57131 z m 6.23561,-12.73972 c 0.30535,-2.11786 0.31199,-4.48437 0.0159,-5.25887 -1.1599,-3.02279 -1.8486,-1.12995 -1.8093,4.97284 0.0429,6.68902 0.85311,6.81811 1.79467,0.28591 z m -96.55186,-8.97036 c -0.42669,-0.69038 1.25582,-16.18935 2.44634,-22.53517 0.37385,-1.99283 1.19794,-3.31438 2.36137,-3.78656 3.3269,-1.35038 27.67444,-5.14442 28.39419,-4.42465 0.8485,0.84841 -2.13922,22.15262 -3.45017,24.60207 -1.02257,1.91067 -0.91487,1.87977 -14.74271,4.23103 -5.55338,0.94429 -11.1023,1.92283 -12.33086,2.17456 -1.22865,0.25157 -2.43373,0.13421 -2.67816,-0.2614 z m 10.55117,-14.36367 1.16301,-4.76518 6.06489,-1.16633 c 3.33565,-0.64147 6.06488,-1.49884 6.06488,-1.90525 0,-0.95954 -2.10734,-0.93401 -7.51238,0.091 -3.4415,0.65264 -5.02152,0.56041 -7.39609,-0.43177 -3.66154,-1.52989 -4.135,-1.19025 -2.80775,2.01412 0.56182,1.35645 0.95779,4.30304 0.87988,6.54799 -0.18604,5.35688 -0.1841,5.36467 1.19423,4.83581 0.65244,-0.25028 1.70968,-2.59957 2.34933,-5.22041 z m 29.73247,7.46301 c -0.53834,-0.87105 2.08236,-20.14613 3.20506,-23.57315 l 0.97302,-2.96987 9.87408,-1.7428 c 5.45073,-0.96207 10.19568,-1.42119 10.59199,-1.02484 0.70982,0.70974 -0.6707,12.90117 -2.43163,21.47468 -0.70553,3.43484 -1.31463,4.51749 -2.74084,4.87139 -5.67472,1.40812 -19.16431,3.46193 -19.47168,2.96459 z m 9.50445,-10.40086 c 0.49913,-0.60143 1.16705,-2.71651 1.48426,-4.70014 0.42357,-2.64902 1.1021,-3.84598 2.55549,-4.50818 1.85398,-0.84472 1.68099,-1.00221 -2.7406,-2.49493 -2.59569,-0.87628 -4.94309,-1.3697 -5.21639,-1.09641 -0.27321,0.27317 0.16694,1.72963 0.97849,3.23632 0.81138,1.50672 1.30083,3.29029 1.08762,3.96352 -1.19087,3.76089 -1.2761,6.69332 -0.19462,6.69332 0.62594,0 1.54644,-0.49206 2.04558,-1.0935 z m 21.17546,4.5023 c 0,-2.65033 2.71502,-21.10813 3.43056,-23.32293 0.8145,-2.52089 1.21149,-2.73009 7.33981,-3.86875 3.56334,-0.66208 6.81938,-0.90184 7.23563,-0.53281 0.91573,0.81174 -1.82293,21.70709 -3.2096,24.48831 -0.7513,1.50696 -2.14579,2.14726 -6.40591,2.94115 -6.74155,1.25633 -8.39049,1.31431 -8.39049,0.29512 z m 8.71739,-9.92981 c 1.20188,-4.24872 1.4782,-10.43702 0.51755,-11.59442 -1.68797,-2.03394 -3.66515,-1.58003 -2.85713,0.65595 0.37629,1.04125 0.63452,4.25969 0.57377,7.15209 -0.10434,4.9667 0.85194,7.01696 1.76581,3.78638 z m 16.84921,5.31007 c -0.51453,-1.34071 1.76816,-21.08511 2.72637,-23.58206 0.65766,-1.71382 3.70764,-2.97391 7.19845,-2.97391 h 2.56642 l -0.56661,4.8382 c -1.17185,10.00518 -3.13043,20.01684 -4.09613,20.93757 -0.5502,0.5246 -2.42523,1.20532 -4.16672,1.51269 -2.43389,0.42957 -3.28087,0.26014 -3.66178,-0.73249 z m 5.87237,-11.94853 c 0.82955,-6.05273 0.63653,-10.11004 -0.52708,-11.07576 -0.84259,-0.69926 -1.06001,0.75755 -1.05177,7.04692 0.009,8.53124 0.71538,10.32832 1.57885,4.02884 z"
     id="path139" />
</svg>
