<svg width="202.66" height="116.62" version="1.1" viewBox="0 0 53.622 30.856" xmlns="http://www.w3.org/2000/svg" xmlns:xlink="http://www.w3.org/1999/xlink">
 <defs>
  <clipPath id="clipPath5505">
   <path d="m-177.28 424.99h576v-576h-576z"/>
  </clipPath>
  <clipPath id="clipPath5535">
   <path d="m-333.26 388.25h576v-576h-576z"/>
  </clipPath>
  <clipPath id="clipPath5487">
   <path d="m-209.44 399.95h576v-576h-576z"/>
  </clipPath>
  <clipPath id="clipPath5517">
   <path d="m-208.22 458.61h576v-576h-576z"/>
  </clipPath>
  <clipPath id="clipPath5541">
   <path d="m-398.03 416.16h576v-576h-576z"/>
  </clipPath>
  <clipPath id="clipPath5547">
   <path d="m-437.58 464.41h576v-576h-576z"/>
  </clipPath>
  <clipPath id="clipPath5481">
   <path d="m-257.2 416.02h576v-576h-576z"/>
  </clipPath>
  <clipPath id="clipPath4285-3">
   <path d="m-350.61 334.43h530.97v-551.99h-530.97z"/>
  </clipPath>
  <clipPath id="clipPath3995-7">
   <path d="m-313.09 421.13h530.97v-551.99h-530.97z"/>
  </clipPath>
  <clipPath id="clipPath3862-3">
   <path d="m-315.54 423.86h530.97v-551.99h-530.97z"/>
  </clipPath>
  <clipPath id="clipPath4007-6">
   <path d="m-317.92 427.34h530.97v-551.99h-530.97z"/>
  </clipPath>
  <clipPath id="clipPath4219-9">
   <path d="m-321.18 430.7h530.97v-551.99h-530.97z"/>
  </clipPath>
  <clipPath id="clipPath4105-2">
   <path d="m-325.68 432.65h530.97v-551.99h-530.97z"/>
  </clipPath>
  <clipPath id="clipPath3905-0">
   <path d="m-330.62 433.01h530.97v-551.99h-530.97z"/>
  </clipPath>
  <clipPath id="clipPath3983-3">
   <path d="m-335.22 432.23h530.97v-551.99h-530.97z"/>
  </clipPath>
 </defs>
 <g transform="matrix(.80001 0 0 .80001 -74.902 .001408)">
  <path d="m97.402 0.53c-1.7898 0-3.2453 1.4747-3.2453 3.288v18.906c0 1.8133 1.4555 3.288 3.2453 3.288h59.713c1.7898 0 3.2453-1.4747 3.2453-3.288v-18.906c0-1.8133-1.4555-3.288-3.2453-3.288z" stroke-linecap="round" stroke-linejoin="round" stroke-width="5.375"/>
  <g transform="translate(9.4535,-126.67)" fill="#fff" stroke-width="1.5625">
   <path transform="matrix(.13874 0 0 -.13874 97.604 131.73)" d="m0 0c-33.347 0-60.388-27.035-60.388-60.388 0-26.68 17.303-49.316 41.297-57.301 3.018-0.559 4.126 1.31 4.126 2.905 0 1.439-0.056 6.197-0.082 11.243-16.8-3.653-20.345 7.125-20.345 7.125-2.747 6.979-6.705 8.836-6.705 8.836-5.479 3.748 0.413 3.671 0.413 3.671 6.064-0.426 9.257-6.224 9.257-6.224 5.386-9.231 14.127-6.562 17.573-5.019 0.543 3.902 2.107 6.567 3.834 8.075-13.413 1.526-27.513 6.705-27.513 29.844 0 6.592 2.359 11.979 6.222 16.208-0.627 1.522-2.694 7.664 0.586 15.982 0 0 5.071 1.622 16.61-6.191 4.817 1.338 9.983 2.009 15.115 2.033 5.132-0.024 10.302-0.695 15.128-2.033 11.526 7.813 16.59 6.191 16.59 6.191 3.287-8.318 1.22-14.46 0.593-15.982 3.872-4.229 6.214-9.616 6.214-16.208 0-23.195-14.127-28.301-27.574-29.796 2.166-1.874 4.096-5.549 4.096-11.183 0-8.08-0.069-14.583-0.069-16.572 0-1.608 1.086-3.491 4.147-2.898 23.982 7.994 41.263 30.622 41.263 57.294 0 33.353-27.037 60.388-60.388 60.388" clip-path="url(#clipPath4285-3)" fill-rule="evenodd" stroke-width="1.5625"/>
   <g stroke-width="1.25">
    <path transform="matrix(.13874 0 0 -.13874 92.399 143.76)" d="m0 0c-0.133-0.301-0.605-0.391-1.035-0.184-0.439 0.197-0.684 0.606-0.542 0.907 0.13 0.308 0.602 0.394 1.04 0.188 0.438-0.197 0.688-0.61 0.537-0.911" clip-path="url(#clipPath3995-7)"/>
    <path transform="matrix(.13874 0 0 -.13874 92.738 144.14)" d="m0 0c-0.288-0.267-0.852-0.143-1.233 0.279-0.396 0.421-0.469 0.985-0.177 1.255 0.297 0.267 0.843 0.142 1.238-0.279 0.396-0.426 0.473-0.985 0.172-1.255" clip-path="url(#clipPath3862-3)"/>
    <path transform="matrix(.13874 0 0 -.13874 93.068 144.62)" d="m0 0c-0.37-0.258-0.976-0.017-1.35 0.52-0.37 0.538-0.37 1.182 9e-3 1.44 0.374 0.258 0.971 0.025 1.35-0.507 0.369-0.546 0.369-1.19-9e-3 -1.453" clip-path="url(#clipPath4007-6)"/>
    <path transform="matrix(.13874 0 0 -.13874 93.521 145.09)" d="m0 0c-0.331-0.365-1.036-0.267-1.552 0.231-0.528 0.487-0.675 1.178-0.344 1.543 0.336 0.366 1.045 0.263 1.565-0.231 0.524-0.486 0.683-1.182 0.331-1.543" clip-path="url(#clipPath4219-9)"/>
    <path transform="matrix(.13874 0 0 -.13874 94.145 145.36)" d="m0 0c-0.147-0.473-0.825-0.687-1.509-0.486-0.683 0.207-1.13 0.76-0.992 1.238 0.142 0.477 0.824 0.7 1.513 0.485 0.682-0.206 1.13-0.756 0.988-1.237" clip-path="url(#clipPath4105-2)"/>
    <path transform="matrix(.13874 0 0 -.13874 94.831 145.41)" d="m0 0c0.017-0.498-0.563-0.911-1.281-0.92-0.722-0.017-1.307 0.387-1.315 0.877 0 0.503 0.568 0.911 1.289 0.924 0.718 0.014 1.307-0.387 1.307-0.881" clip-path="url(#clipPath3905-0)"/>
    <path transform="matrix(.13874 0 0 -.13874 95.469 145.3)" d="m0 0c0.086-0.485-0.413-0.984-1.126-1.117-0.701-0.129-1.35 0.172-1.439 0.653-0.087 0.498 0.42 0.997 1.121 1.126 0.714 0.124 1.353-0.168 1.444-0.662" clip-path="url(#clipPath3983-3)"/>
   </g>
   <path class="st28" d="m147.19 127.47c1.7687 0 3.2071 1.4384 3.2071 3.2071v18.441c0 1.7687-1.4384 3.2071-3.2071 3.2071h-59.01c-1.7687 0-3.2071-1.4384-3.2071-3.2071v-18.441c0-1.7687 1.4384-3.2071 3.2071-3.2071h59.01m0-0.80176h-59.01c-2.2145 0-4.0088 1.7944-4.0088 4.0088v18.441c0 2.2145 1.7944 4.0088 4.0088 4.0088h59.01c2.2145 0 4.0088-1.7944 4.0088-4.0088v-18.441c0-2.2145-1.7944-4.0088-4.0088-4.0088z" stroke-width=".33072"/>
   <g stroke-width="1.25">
    <path transform="matrix(.090034 0 0 -.090034 117.94 142.38)" d="m0 0h-30.267c-0.781 0-1.415-0.634-1.415-1.415v-14.798c0-0.781 0.634-1.417 1.415-1.417h11.807v-18.385s-2.651-0.904-9.981-0.904c-8.647 0-20.727 3.16-20.727 29.724 0 26.569 12.579 30.064 24.388 30.064 10.222 0 14.626-1.799 17.428-2.667 0.881-0.269 1.695 0.608 1.695 1.389l3.377 14.298c0 0.366-0.124 0.805-0.54 1.104-1.138 0.813-8.081 4.697-25.621 4.697-20.205 0-40.932-8.596-40.932-49.921 0-41.327 23.73-47.485 43.727-47.485 16.557 0 26.601 7.075 26.601 7.075 0.414 0.229 0.459 0.808 0.459 1.073v46.153c0 0.781-0.633 1.415-1.414 1.415" clip-path="url(#clipPath5505)"/>
    <path transform="matrix(.090034 0 0 -.090034 131.99 139.07)" d="m0 0c0 0.788-0.624 1.423-1.405 1.423h-17.042c-0.779 0-1.411-0.635-1.411-1.423 0-3e-3 4e-3 -32.934 4e-3 -32.934h-26.564v32.934c0 0.788-0.627 1.423-1.407 1.423h-17.041c-0.775 0-1.407-0.635-1.407-1.423v-89.177c0-0.787 0.632-1.427 1.407-1.427h17.041c0.78 0 1.407 0.64 1.407 1.427v38.145h26.564s-0.046-38.142-0.046-38.145c0-0.787 0.631-1.427 1.412-1.427h17.082c0.78 0 1.404 0.64 1.406 1.427z" clip-path="url(#clipPath5535)"/>
    <path transform="matrix(.090034 0 0 -.090034 120.84 140.13)" d="m0 0c0 6.136-4.92 11.095-10.99 11.095-6.064 0-10.987-4.959-10.987-11.095 0-6.131 4.923-11.104 10.987-11.104 6.07 0 10.99 4.973 10.99 11.104" clip-path="url(#clipPath5487)"/>
    <path transform="matrix(.090034 0 0 -.090034 120.73 145.41)" d="m0 0v41.164c0 0.782-0.63 1.421-1.41 1.421h-16.988c-0.78 0-1.477-0.804-1.477-1.585v-58.977c0-1.733 1.08-2.249 2.478-2.249h15.306c1.679 0 2.091 0.826 2.091 2.277z" clip-path="url(#clipPath5517)"/>
    <path transform="matrix(.090034 0 0 -.090034 137.82 141.59)" d="m0 0h-16.911c-0.776 0-1.407-0.64-1.407-1.427v-43.725s-4.297-3.144-10.395-3.144-7.716 2.767-7.716 8.737v38.132c0 0.787-0.63 1.427-1.406 1.427h-17.164c-0.774 0-1.409-0.64-1.409-1.427v-41.018c0-17.736 9.884-22.075 23.481-22.075 11.156 0 20.15 6.164 20.15 6.164s0.427-3.248 0.622-3.633c0.193-0.384 0.698-0.773 1.244-0.773l10.919 0.049c0.774 0 1.409 0.64 1.409 1.424l-6e-3 59.862c0 0.787-0.632 1.427-1.411 1.427" clip-path="url(#clipPath5541)"/>
    <path transform="matrix(.090034 0 0 -.090034 141.38 145.93)" d="m0 0c-5.866 0.179-9.845 2.841-9.845 2.841v28.24s3.925 2.406 8.741 2.836c6.09 0.546 11.958-1.294 11.958-15.821 0-15.32-2.648-18.343-10.854-18.096m6.67 50.245c-9.605 0-16.138-4.285-16.138-4.285v30.196c0 0.788-0.63 1.423-1.406 1.423h-17.091c-0.777 0-1.408-0.635-1.408-1.423v-89.177c0-0.787 0.631-1.426 1.41-1.426h11.858c0.534 0 0.938 0.275 1.237 0.757 0.295 0.479 0.72 4.112 0.72 4.112s6.988-6.623 20.217-6.623c15.532 0 24.439 7.878 24.439 35.366s-14.226 31.08-23.838 31.08" clip-path="url(#clipPath5547)"/>
    <path transform="matrix(.090034 0 0 -.090034 125.14 141.57)" d="m0 0h-12.784s-0.019 16.885-0.019 16.889c0 0.639-0.329 0.959-1.069 0.959h-17.42c-0.677 0-1.041-0.298-1.041-0.95v-17.452s-8.73-2.107-9.32-2.277c-0.588-0.171-1.021-0.713-1.021-1.359v-10.967c0-0.789 0.63-1.426 1.409-1.426h8.932v-26.384c0-19.596 13.746-21.521 23.021-21.521 4.239 0 9.309 1.361 10.146 1.67 0.506 0.186 0.801 0.711 0.801 1.279l0.014 12.064c0 0.787-0.665 1.424-1.413 1.424-0.745 0-2.651-0.303-4.613-0.303-6.279 0-8.407 2.919-8.407 6.699 0 3.776-1e-3 25.072-1e-3 25.072h12.785c0.779 0 1.411 0.637 1.411 1.426v13.736c0 0.787-0.632 1.421-1.411 1.421" clip-path="url(#clipPath5481)"/>
   </g>
   <g stroke-width=".33072">
    <path class="st28" d="m114.35 134.59h0.76008v1.4576c-0.19564 0.14752-0.42013 0.25977-0.6783 0.33834-0.25657 0.0786-0.51474 0.11866-0.77451 0.11866-0.37362 0-0.70876-0.0802-1.0054-0.23892-0.29826-0.15875-0.53077-0.38004-0.70075-0.66226-0.16997-0.28222-0.25336-0.60133-0.25336-0.95731 0-0.35599 0.085-0.67509 0.25336-0.95731 0.16998-0.28223 0.40409-0.50351 0.70556-0.66226 0.30146-0.15875 0.63981-0.23893 1.0166-0.23893 0.31429 0 0.60132 0.0529 0.85789 0.15875 0.25656 0.10583 0.47304 0.25977 0.64622 0.46182l-0.53397 0.49228c-0.25657-0.27099-0.56605-0.40569-0.92845-0.40569-0.22931 0-0.43296 0.0481-0.61095 0.14432-0.17799 0.0962-0.31589 0.23091-0.41531 0.40569-0.0994 0.17479-0.14913 0.37523-0.14913 0.60133 0 0.22289 0.0497 0.42012 0.14913 0.59491 0.0994 0.17478 0.23732 0.31108 0.41371 0.4073 0.17639 0.0978 0.37683 0.14592 0.60293 0.14592 0.23893 0 0.4554-0.0513 0.64622-0.15394v-1.0503z"/>
    <path class="st28" d="m118.51 135.29h-2.0894c0.0369 0.17157 0.12668 0.30627 0.26619 0.40569 0.13951 0.0994 0.31429 0.14913 0.52436 0.14913 0.14432 0 0.27099-0.0209 0.38164-0.0641 0.11064-0.0433 0.21487-0.11065 0.31108-0.20205l0.42654 0.46182c-0.25977 0.29826-0.63981 0.44739-1.1401 0.44739-0.31108 0-0.58689-0.0609-0.82582-0.18281-0.23893-0.12187-0.42494-0.29024-0.55482-0.50511-0.12989-0.21487-0.19563-0.46022-0.19563-0.73442 0-0.271 0.0641-0.51473 0.19242-0.73121 0.12828-0.21808 0.30467-0.38645 0.52917-0.50832 0.22449-0.12187 0.47464-0.18281 0.75205-0.18281 0.271 0 0.51474 0.0577 0.73442 0.17479 0.21969 0.11706 0.39127 0.28383 0.51634 0.5003 0.12508 0.21808 0.18762 0.46984 0.18762 0.75687-2e-3 0.01-6e-3 0.0818-0.016 0.21488zm-1.8745-0.88836c-0.12347 0.10262-0.19884 0.24373-0.2261 0.42012h1.3598c-0.0273-0.17478-0.10263-0.31429-0.2261-0.41852s-0.27421-0.15715-0.4522-0.15715c-0.17959 2e-3 -0.33193 0.0529-0.4554 0.15555z"/>
    <path class="st28" d="m120.84 136.31c-0.0786 0.0577-0.17479 0.10102-0.29024 0.13149-0.11546 0.0289-0.23572 0.0433-0.3624 0.0433-0.32873 0-0.58208-0.0834-0.76168-0.25175-0.1796-0.16837-0.26939-0.41371-0.26939-0.73923v-1.1353h-0.42654v-0.61575h0.42654v-0.67188h0.80016v0.67188h0.68792v0.61575h-0.68792v1.1241c0 0.11706 0.0305 0.20686 0.0898 0.2694 0.0593 0.0641 0.14432 0.0946 0.25336 0.0946 0.12668 0 0.23411-0.0337 0.32391-0.10263z"/>
    <path class="st28" d="m122.79 133.17c-0.093-0.085-0.13791-0.19242-0.13791-0.3191s0.0465-0.23251 0.13791-0.3175c0.093-0.085 0.21166-0.12828 0.35919-0.12828 0.14752 0 0.26618 0.0417 0.35919 0.12347 0.093 0.0818 0.1379 0.1844 0.1379 0.30788 0 0.13309-0.0465 0.24373-0.1379 0.33032-0.093 0.0866-0.21167 0.13149-0.35919 0.13149-0.14753 0-0.26619-0.0433-0.35919-0.12828zm-0.0401 0.51313h0.80016v2.7613h-0.80016z"/>
    <path class="st28" d="m126.07 136.31c-0.0786 0.0577-0.17479 0.10102-0.29024 0.13149-0.11545 0.0289-0.23572 0.0433-0.3624 0.0433-0.32872 0-0.58208-0.0834-0.76168-0.25175-0.17959-0.16837-0.26939-0.41371-0.26939-0.73923v-1.1353h-0.42654v-0.61575h0.42654v-0.67188h0.80016v0.67188h0.68792v0.61575h-0.68792v1.1241c0 0.11706 0.0305 0.20686 0.0898 0.2694 0.0593 0.0641 0.14432 0.0946 0.25336 0.0946 0.12668 0 0.23411-0.0337 0.32391-0.10263z"/>
    <path class="st28" d="m128.51 136.3c-0.23091-0.12187-0.41211-0.29024-0.542-0.50511-0.12988-0.21488-0.19563-0.46022-0.19563-0.73442 0-0.27421 0.0658-0.51795 0.19563-0.73442 0.12989-0.21488 0.31109-0.38485 0.542-0.50512 0.23091-0.12186 0.49229-0.1828 0.78252-0.1828 0.29024 0 0.55162 0.0609 0.78093 0.1828 0.2293 0.12187 0.4089 0.29024 0.53878 0.50512 0.12989 0.21487 0.19564 0.46021 0.19564 0.73442 0 0.2742-0.0658 0.51794-0.19564 0.73442-0.12988 0.21487-0.30948 0.38484-0.53878 0.50511-0.22931 0.12187-0.48908 0.1828-0.78093 0.1828-0.29184 0-0.55161-0.0609-0.78252-0.1828zm1.2876-0.68311c0.13149-0.1379 0.19723-0.32391 0.19723-0.55642 0-0.23252-0.0657-0.41853-0.19723-0.55643-0.13149-0.1379-0.29986-0.20846-0.50512-0.20846-0.20525 0-0.37522 0.069-0.50832 0.20846-0.13309 0.1379-0.20044 0.32391-0.20044 0.55643 0 0.23251 0.0674 0.41852 0.20044 0.55642 0.1331 0.13791 0.30307 0.20846 0.50832 0.20846 0.20526 0 0.37363-0.069 0.50512-0.20846z"/>
    <path class="st28" d="m133.85 133.95c0.21006 0.20525 0.3159 0.50992 0.3159 0.91401v1.5811h-0.80017v-1.4576c0-0.21969-0.0481-0.38164-0.14432-0.49068-0.0962-0.10744-0.23411-0.16196-0.41531-0.16196-0.20205 0-0.3624 0.0625-0.48267 0.18761-0.12026 0.12508-0.17959 0.31109-0.17959 0.55643v1.3662h-0.80017v-2.7613h0.76489v0.32392c0.10583-0.11706 0.23732-0.20686 0.39447-0.2694 0.15715-0.0625 0.33033-0.0946 0.51794-0.0946 0.34316-2e-3 0.61897 0.10103 0.82903 0.30628z"/>
   </g>
  </g>
 </g>
 <g transform="matrix(.83371 0 0 .80567 -79.191 -.34174)" stroke-width="1.2202">
  <g stroke="#fff" stroke-width="2.1646">
   <path class="st0" d="m113.64 30.93c-0.39994-0.30634-0.86425-0.52078-1.3653-0.63456-0.28502-0.0656-0.57463-0.0963-0.86885-0.10502-0.21605-9e-3 -0.43672-4e-3 -0.65277-4e-3h-3.0938c-0.21606 0-0.43672 0-0.65278 4e-3 -0.29421 9e-3 -0.57923 0.0394-0.86885 0.10502-0.50108 0.11378-0.96079 0.32822-1.3607 0.63456-0.80908 0.61705-1.278 1.5492-1.278 2.5382 0 0.98903 0.4689 1.9212 1.278 2.5382 0.39995 0.30634 0.86425 0.52077 1.3653 0.63456 0.28502 0.0656 0.57463 0.0963 0.86885 0.10503 0.21606 9e-3 0.43672 4e-3 0.65278 4e-3h3.0938c0.21606 0 0.43672 0 0.65278-4e-3 0.29422-9e-3 0.57923-0.0394 0.86885-0.10503 0.50108-0.11379 0.96079-0.32822 1.3607-0.63456 0.80909-0.61705 1.278-1.5492 1.278-2.5382 0-0.98904-0.4689-1.9212-1.278-2.5382zm-1.5124 3.4222c-0.15171 0.10065-0.3218 0.16192-0.50108 0.18817-0.17929 0.0263-0.36317 0.0219-0.54246 0.0219h-3.7466c-0.18388 0-0.36317 4e-3 -0.54246-0.0219-0.18388-0.0263-0.34938-0.0875-0.50108-0.18817-0.30341-0.2013-0.48729-0.52953-0.48729-0.884 0-0.35448 0.18388-0.68269 0.48729-0.88401 0.1517-0.10065 0.3218-0.16192 0.50108-0.18817 0.17929-0.0263 0.36317-0.0219 0.54246-0.0219h3.7466c0.18388 0 0.36317-4e-3 0.54246 0.0219 0.18388 0.0263 0.34937 0.0875 0.50108 0.18817 0.3034 0.20132 0.48728 0.52953 0.48728 0.88401 4e-3 0.35447-0.17928 0.6827-0.48728 0.884z" fill="#1c1e20" stroke-linejoin="round" style="paint-order:markers stroke fill"/>
   <path d="m119.69 30.6 3.268-0.4445 2e-3 3.1483-3.2664 0.0186zm3.2664 3.0665 3e-3 3.151-3.2664-0.44853-1.8e-4 -2.7236zm0.39616-3.5692 4.3331-0.63161v3.798l-4.3331 0.0343zm4.3341 3.5988-9.7e-4 3.7809-4.3331-0.6108-5e-3 -3.1772z" fill="#00080a" style="paint-order:markers stroke fill"/>
   <path d="m138.85 32.17c-0.0471 0.0372-0.87795 0.51354-0.87795 1.5728 0 1.2252 1.0573 1.6587 1.0889 1.6694-5e-3 0.0264-0.16795 0.59363-0.55743 1.1716-0.34728 0.50859-0.70998 1.0164-1.2617 1.0164-0.55175 0-0.69376-0.32613-1.3307-0.32613-0.62072 0-0.84143 0.33687-1.3461 0.33687-0.50469 0-0.85684-0.47061-1.2617-1.0486-0.46899-0.67867-0.84792-1.733-0.84792-2.7337 0-1.605 1.0256-2.4563 2.035-2.4563 0.53635 0 0.98344 0.35833 1.3202 0.35833 0.32051 0 0.82034-0.37979 1.4305-0.37979 0.23125 0 1.0621 0.0215 1.609 0.81903zm-1.8987-1.4985c0.25236-0.30466 0.43086-0.72739 0.43086-1.1501 0-0.0586-5e-3 -0.11807-0.0154-0.16597-0.41057 0.0157-0.89903 0.27824-1.1936 0.62584-0.23126 0.2675-0.44709 0.69023-0.44709 1.1187 0 0.0644 0.0105 0.12881 0.0154 0.14945 0.026 5e-3 0.0681 0.0108 0.11034 0.0108 0.36839 0 0.8317-0.25098 1.0995-0.58867z" stroke-linecap="round" stroke-linejoin="round" style="paint-order:markers stroke fill"/>
  </g>
  <path d="m146.51 30.37-0.1827 1.9128-0.80551 1.4158-0.37741 1.3878-0.94638 0.64901-0.0974 0.44673 0.0249 0.81199 1.925 0.56606 0.48958-0.42831 1.9057-0.0377 0.35554 0.55659 1.792-1.2849-0.81344-1.2729-2.0803-4.7248z" fill="#fff" stroke-width="1.503" style="paint-order:markers stroke fill"/>
  <path d="m144.72 37.15c0.4239 0.052 0.90019 0.334 1.2988 0.38379 0.40074 0.052 0.52475-0.28026 0.52475-0.28026s0.45095-0.10353 0.92504-0.11546c0.47455-0.0137 0.92377 0.10136 0.92377 0.10136s0.0871 0.20489 0.24973 0.29436c0.16261 0.0912 0.51272 0.10353 0.73712-0.13925 0.22482-0.24454 0.82466-0.55258 1.1615-0.74513 0.33896-0.193 0.27676-0.48732 0.064-0.57679-0.21281-0.0894-0.38701-0.23044-0.37371-0.501 0.0116-0.26833-0.18793-0.44723-0.18793-0.44723s0.17463-0.59044 0.012-1.0796c-0.16262-0.48688-0.69895-1.2699-1.1113-1.8586-0.41232-0.59044-0.0622-1.2721-0.43763-2.1432-0.37545-0.87245-1.349-0.82088-1.8737-0.44902-0.52474 0.3719-0.36386 1.2941-0.33855 1.7317 0.0253 0.43534 0.0116 0.74685-0.0369 0.8588-0.0485 0.11367-0.38701 0.52655-0.61183 0.87245-0.2244 0.34766-0.38704 1.0654-0.55136 1.3616-0.16091 0.29435-0.0485 0.56269-0.0485 0.56269s-0.1124 0.0396-0.20123 0.23267c-0.0871 0.19079-0.26131 0.28198-0.57496 0.34414-0.3115 0.0656-0.3115 0.27187-0.23641 0.50276 0.0755 0.23044 0 0.35955-0.0871 0.65391-0.0871 0.2943 0.34884 0.38374 0.77445 0.43531zm4.4065-1.3426c0.22268 0.10002 0.54276-0.0392 0.64016-0.13925 0.097-0.0996 0.16562-0.24764 0.16562-0.24764s0.0974 0.0498 0.0875 0.20796c-0.0103 0.1604 0.0669 0.38909 0.21281 0.46841 0.14588 0.0789 0.36856 0.18901 0.25315 0.29917-0.11758 0.11017-0.76802 0.37895-0.96238 0.58869-0.19265 0.2084-0.44579 0.37894-0.59984 0.32871-0.15572-0.0498-0.29175-0.26834-0.22479-0.58824 0.0691-0.31857 0.12742-0.66801 0.11755-0.86761-0.0103-0.19959-0.0485-0.46837 0-0.50805 0.0485-0.0392 0.12572-0.0203 0.12572-0.0203s-0.0387 0.37857 0.18448 0.47813zm-1.4451-5.3924c0.21452 0 0.38744 0.21855 0.38744 0.48733 0 0.19079-0.0871 0.35604-0.21454 0.43536-0.0322-0.0137-0.0657-0.0291-0.10255-0.045 0.0772-0.0392 0.13085-0.13922 0.13085-0.25468 0-0.15112-0.0905-0.27538-0.20423-0.27538-0.11069 0-0.20296 0.12423-0.20296 0.27538 0 0.0551 0.0133 0.11016 0.0352 0.15335-0.0669-0.0278-0.12743-0.0516-0.17591-0.0705-0.0253-0.0657-0.0403-0.1397-0.0403-0.21855 2e-5 -0.26878 0.17249-0.48735 0.38705-0.48735zm-0.5312 0.83986c0.10557 0.0189 0.39558 0.14805 0.50288 0.1877 0.10727 0.0379 0.2261 0.10838 0.21452 0.1789-0.0133 0.0727-0.0686 0.0727-0.21452 0.1639-0.14417 0.0895-0.45909 0.28907-0.55993 0.30272-0.10041 0.0137-0.15746-0.0445-0.26476-0.11546-0.10727-0.0723-0.30847-0.24103-0.25787-0.33046 0 0 0.15746-0.12382 0.22613-0.18726 0.0687-0.0657 0.24628-0.22033 0.35355-0.20004zm-0.46253-0.76229c0.16904 0 0.30678 0.20664 0.30678 0.46133 0 0.0463-5e-3 0.0894-0.0133 0.13262-0.042 0.0137-0.0841 0.0361-0.12445 0.0723-0.0197 0.0172-0.0382 0.0326-0.0549 0.0498 0.0266-0.0516 0.0369-0.12557 0.0249-0.20314-0.0232-0.13747-0.1137-0.23925-0.20252-0.22559-0.0893 0.0154-0.14246 0.14145-0.121 0.2807 0.0236 0.141 0.1124 0.24276 0.20293 0.22735 5e-3 -2e-3 0.01-4e-3 0.015-5e-3 -0.0433 0.0432-0.0837 0.0811-0.12572 0.11192-0.12227-0.0586-0.21281-0.23398-0.21281-0.44063 3e-5 -0.25643 0.1356-0.46133 0.30508-0.46133zm-0.94178 3.3338c0.1742-0.28199 0.2866-0.89845 0.4608-1.1033 0.17593-0.20445 0.3115-0.64023 0.24972-0.83278 0 0 0.37543 0.46133 0.63674 0.38555 0.26172-0.0776 0.84997-0.52656 0.93706-0.44944 0.0871 0.0775 0.83625 1.7696 0.91175 2.3085 0.0755 0.53845-0.0502 0.95002-0.0502 0.95002s-0.2866-0.0776-0.32352 0.10133c-0.0369 0.18066-0.0369 0.83501-0.0369 0.83501s-0.38744 0.55079-0.98728 0.64198c-0.59983 0.0895-0.90019 0.0242-0.90019 0.0242l-0.33681-0.39613s0.26174-0.0396 0.22482-0.30977c-0.0369-0.26833-0.79978-0.64025-0.93709-0.97425-0.13725-0.33401-0.0253-0.89845 0.15109-1.1809zm-1.4833 2.0207c0.03-0.13218 0.41875-0.13218 0.56807-0.22515 0.14932-0.093 0.17933-0.36 0.29992-0.43049 0.11883-0.0723 0.33852 0.1842 0.42906 0.32869 0.0888 0.141 0.42908 0.75746 0.56809 0.91079 0.14073 0.15465 0.26989 0.35955 0.22955 0.54374-0.0382 0.18416-0.2497 0.31857-0.2497 0.31857-0.18921 0.0599-0.71696-0.17405-0.95679-0.27717-0.23983-0.10353-0.84998-0.1344-0.92849-0.22559-0.0807-0.093 0.0386-0.29787 0.0703-0.4922 0.0283-0.19651-0.0605-0.31857-0.0301-0.45119z" stroke="#fff" stroke-linejoin="round" stroke-width="2.1646" style="paint-order:markers stroke fill"/>
 </g>
</svg>
