<svg width="271.52" height="116.57" version="1.1" viewBox="0 0 71.838 30.844" xmlns="http://www.w3.org/2000/svg" xmlns:xlink="http://www.w3.org/1999/xlink">
 <defs>
  <pattern id="SVGID_3_" patternTransform="translate(40 460)" xlink:href="#Pattern_A"/>
  <pattern id="Pattern_A" x="-249" y="-778" width="730" height="730" overflow="visible" patternUnits="userSpaceOnUse" viewBox="746.89 -1470.45 730 730">
   <rect class="st0" x="746.89" y="-1470.4" width="730" height="730"/>
   <rect class="st1" x="1460" y="-750.56" width="759.71" height="750.56"/>
   <rect class="st1" x="730" y="-750.56" width="759.71" height="750.56"/>
   <rect class="st1" y="-750.56" width="759.71" height="750.56"/>
   <rect class="st1" x="1460" y="-1480.6" width="759.71" height="750.56"/>
   <rect class="st1" x="730" y="-1480.6" width="759.71" height="750.56"/>
   <g class="st2">
    <g class="st3">
     <polygon class="st4" points="1044.6 -1033.1 1025 -1043.8 1019.4 -1065.8 1039.1 -1055.1"/>
     <polygon class="st5" points="1061.3 -1099.4 1041.6 -1110.1 1062.7 -1119 1082.4 -1108.3"/>
     <polygon class="st4" points="1018 -1046.1 998.34 -1056.8 990.4 -1088.2 1010.1 -1077.5"/>
     <polygon class="st5" points="1010.1 -1077.5 990.4 -1088.2 1011.5 -1097.2 1031.2 -1086.5"/>
     <polygon class="st4" points="1031.2 -1086.5 1011.5 -1097.2 1005.9 -1119.1 1025.6 -1108.4"/>
     <polygon class="st5" points="1025.6 -1108.4 1005.9 -1119.1 1036.1 -1132 1055.8 -1121.3"/>
     <polygon class="st6" points="1055.8 -1121.3 1061.3 -1099.4 1082.4 -1108.3 1090.3 -1076.9 1069.3 -1067.9 1074.8 -1046 1044.6 -1033.1 1039.1 -1055.1 1018 -1046.1 1010.1 -1077.5 1031.2 -1086.5 1025.6 -1108.4"/>
    </g>
   </g>
   <g class="st7">
    <g class="st3">
     <polygon class="st8" points="828.1 -799.1 860.38 -787.11 868.46 -759.45 836.18 -771.44"/>
     <polygon class="st9" points="814.82 -700.55 847.1 -688.56 824.09 -666.7 791.81 -678.69"/>
     <polygon class="st9" points="870.77 -753.71 903.05 -741.72 880.04 -719.85 847.76 -731.84"/>
     <polygon class="st8" points="859.2 -793.3 891.47 -781.31 903.05 -741.72 870.77 -753.71"/>
     <polygon class="st9" points="855.84 -704.18 888.12 -692.19 855.18 -660.9 822.91 -672.89"/>
     <polygon class="st8" points="847.76 -731.84 880.04 -719.85 888.12 -692.19 855.84 -704.18"/>
     <polygon class="st10" points="828.1 -799.1 836.18 -771.44 859.2 -793.3 870.77 -753.71 847.76 -731.84 855.84 -704.18 822.91 -672.89 814.82 -700.55 791.81 -678.69 780.24 -718.28 803.25 -740.15 795.16 -767.81"/>
    </g>
   </g>
   <g class="st2">
    <g class="st3">
     <polygon class="st5" points="1236.9 -1130.4 1254.2 -1139.4 1250.2 -1121.9 1232.9 -1112.8"/>
     <polygon class="st6" points="1203 -1178.2 1220.3 -1187.3 1236.6 -1177.9 1219.3 -1168.9"/>
     <polygon class="st6" points="1242.6 -1155.4 1259.9 -1164.5 1276.2 -1155.1 1258.9 -1146.1"/>
     <polygon class="st5" points="1258.9 -1146.1 1276.2 -1155.1 1270.5 -1130 1253.2 -1121"/>
     <polygon class="st5" points="1246.6 -1173 1263.9 -1182 1259.9 -1164.5 1242.6 -1155.4"/>
     <polygon class="st6" points="1223.3 -1186.4 1240.6 -1195.5 1263.9 -1182 1246.6 -1173"/>
     <polygon class="st11" points="1223.3 -1186.4 1246.6 -1173 1242.6 -1155.4 1258.9 -1146.1 1253.2 -1121 1236.9 -1130.4 1232.9 -1112.8 1209.6 -1126.2 1213.6 -1143.8 1197.3 -1153.1 1203 -1178.2 1219.3 -1168.9"/>
    </g>
   </g>
   <g class="st7">
    <g class="st3">
     <polygon class="st5" points="1380.5 -804.8 1434.4 -833.22 1423.6 -787.45 1369.8 -759.03"/>
     <polygon class="st6" points="1292.1 -929.48 1345.9 -957.9 1388.6 -933.57 1334.8 -905.15"/>
     <polygon class="st6" points="1395.9 -870.31 1449.8 -898.73 1492.4 -874.39 1438.6 -845.97"/>
     <polygon class="st5" points="1438.6 -845.97 1492.4 -874.39 1477.1 -808.88 1423.2 -780.46"/>
     <polygon class="st5" points="1406.7 -916.08 1460.5 -944.5 1449.8 -898.73 1395.9 -870.31"/>
     <polygon class="st6" points="1345.6 -950.92 1399.4 -979.33 1460.5 -944.5 1406.7 -916.08"/>
     <polygon class="st10" points="1345.6 -950.92 1406.7 -916.08 1395.9 -870.31 1438.6 -845.97 1423.2 -780.46 1380.5 -804.8 1369.8 -759.03 1308.7 -793.87 1319.4 -839.64 1276.7 -863.97 1292.1 -929.48 1334.8 -905.15"/>
    </g>
   </g>
   <g class="st2">
    <g class="st3">
     <polygon class="st12" points="1120.9 -966.39 1132.2 -972.37 1142.2 -971.99 1130.9 -966"/>
     <polygon class="st13" points="1148.3 -948.15 1159.7 -954.14 1161.8 -942.06 1150.5 -936.07"/>
     <polygon class="st13" points="1143.1 -977.53 1154.5 -983.51 1156.6 -971.43 1145.3 -965.44"/>
     <polygon class="st12" points="1128.8 -978.08 1140.1 -984.07 1154.5 -983.51 1143.1 -977.53"/>
     <polygon class="st13" points="1155.3 -965.06 1166.7 -971.04 1169.7 -953.74 1158.4 -947.76"/>
     <polygon class="st12" points="1145.3 -965.44 1156.6 -971.43 1166.7 -971.04 1155.3 -965.06"/>
     <polygon class="st10" points="1143.1 -977.53 1145.3 -965.44 1155.3 -965.06 1158.4 -947.76 1148.3 -948.15 1150.5 -936.07 1136.1 -936.63 1134 -948.71 1123.9 -949.1 1120.9 -966.39 1130.9 -966 1128.8 -978.08"/>
    </g>
   </g>
   <g class="st7">
    <g class="st3">
     <polygon class="st14" points="898.79 -1252.8 891.53 -1261.4 907.31 -1258.2 914.57 -1249.5"/>
     <polygon class="st15" points="859.81 -1217.9 852.55 -1226.6 859.29 -1242.8 866.55 -1234.2"/>
     <polygon class="st15" points="876.2 -1257.4 868.95 -1266 875.69 -1282.3 882.95 -1273.6"/>
     <polygon class="st14" points="882.95 -1273.6 875.69 -1282.3 898.27 -1277.6 905.53 -1269"/>
     <polygon class="st14" points="860.43 -1260.6 853.17 -1269.3 868.95 -1266 876.2 -1257.4"/>
     <polygon class="st15" points="850.77 -1237.4 843.52 -1246 853.17 -1269.3 860.43 -1260.6"/>
     <polygon class="st16" points="905.53 -1269 898.79 -1252.8 914.57 -1249.5 904.91 -1226.3 889.14 -1229.5 882.39 -1213.3 859.81 -1217.9 866.55 -1234.2 850.77 -1237.4 860.43 -1260.6 876.2 -1257.4 882.95 -1273.6"/>
    </g>
   </g>
   <g class="st17">
    <g class="st3">
     <polygon class="st18" points="1045.2 -1324.6 997.02 -1350.8 1070.1 -1345.3 1118.2 -1319.1"/>
     <polygon class="st19" points="1030.3 -1243.7 982.21 -1269.9 997.02 -1350.8 1045.2 -1324.6"/>
     <polygon class="st6" points="1045.2 -1324.6 1118.2 -1319.1 1103.4 -1238.1 1030.3 -1243.7"/>
    </g>
   </g>
   <g class="st7">
    <g class="st3">
     <polygon class="st4" points="1092.5 -717.42 1044.4 -743.6 1009.8 -809.93 1057.9 -783.75"/>
     <polygon class="st18" points="1057.9 -783.75 1009.8 -809.93 1075.8 -856.66 1124 -830.48"/>
     <polygon class="st6" points="1124 -830.48 1158.5 -764.14 1092.5 -717.42 1057.9 -783.75"/>
    </g>
   </g>
   <g class="st2">
    <g class="st3">
     <polygon class="st4" points="1460.6 -1122.8 1412.4 -1149 1377.9 -1215.3 1426 -1189.2"/>
     <polygon class="st18" points="1426 -1189.2 1377.9 -1215.3 1443.9 -1262.1 1492 -1235.9"/>
     <polygon class="st6" points="1492 -1235.9 1526.6 -1169.6 1460.6 -1122.8 1426 -1189.2"/>
    </g>
   </g>
   <g class="st20">
    <g class="st3">
     <polygon class="st21" points="821.75 -987.67 870.93 -1019 940.85 -1011.8 891.67 -980.49"/>
     <polygon class="st6" points="891.67 -980.49 940.85 -1011.8 954.49 -931.13 905.31 -899.77"/>
     <polygon class="st11" points="821.75 -987.67 891.67 -980.49 905.31 -899.77 835.39 -906.96"/>
    </g>
   </g>
   <g class="st22">
    <g class="st3">
     <polygon class="st21" points="1176.1 -709.45 1236.9 -748.2 1323.3 -739.32 1262.6 -700.57"/>
     <polygon class="st6" points="1262.6 -700.57 1323.3 -739.32 1340.2 -639.57 1279.4 -600.81"/>
     <polygon class="st11" points="1176.1 -709.45 1262.6 -700.57 1279.4 -600.81 1193 -609.69"/>
    </g>
   </g>
   <g class="st2">
    <g class="st3">
     <polygon class="st23" points="1320.1 -1057.8 1339 -1082.4 1360.8 -1037.5 1341.9 -1012.8"/>
     <polygon class="st24" points="1276.2 -1046 1295.1 -1070.6 1339 -1082.4 1320.1 -1057.8"/>
     <polygon class="st12" points="1320.1 -1057.8 1341.9 -1012.8 1298 -1001 1276.2 -1046"/>
    </g>
   </g>
   <rect class="st1" y="-1480.6" width="759.71" height="750.56"/>
   <g class="st7">
    <g class="st3">
     <polygon class="st6" points="665.93 -870.31 719.75 -898.73 762.45 -874.39 708.64 -845.97"/>
     <polygon class="st5" points="708.64 -845.97 762.45 -874.39 747.07 -808.88 693.25 -780.46"/>
    </g>
   </g>
   <g class="st2">
    <g class="st3">
     <polygon class="st18" points="696.01 -1189.2 647.87 -1215.3 713.92 -1262.1 762.05 -1235.9"/>
     <polygon class="st6" points="762.05 -1235.9 796.62 -1169.6 730.58 -1122.8 696.01 -1189.2"/>
    </g>
   </g>
   <rect class="st1" x="1460" y="-2210.6" width="759.71" height="750.56"/>
   <rect class="st1" x="730" y="-2210.6" width="759.71" height="750.56"/>
   <g class="st7">
    <g class="st3">
     <polygon class="st9" points="814.82 -1430.6 847.1 -1418.6 824.09 -1396.7 791.81 -1408.7"/>
     <polygon class="st9" points="870.77 -1483.7 903.05 -1471.7 880.04 -1449.8 847.76 -1461.8"/>
     <polygon class="st9" points="855.84 -1434.2 888.12 -1422.2 855.18 -1390.9 822.91 -1402.9"/>
     <polygon class="st8" points="847.76 -1461.8 880.04 -1449.8 888.12 -1422.2 855.84 -1434.2"/>
     <polygon class="st10" points="828.1 -1529.1 836.18 -1501.4 859.2 -1523.3 870.77 -1483.7 847.76 -1461.8 855.84 -1434.2 822.91 -1402.9 814.82 -1430.6 791.81 -1408.7 780.24 -1448.3 803.25 -1470.2 795.16 -1497.8"/>
     <polygon class="st4" points="1092.5 -1447.4 1044.4 -1473.6 1009.8 -1539.9 1057.9 -1513.8"/>
     <polygon class="st6" points="1124 -1560.5 1158.5 -1494.1 1092.5 -1447.4 1057.9 -1513.8"/>
    </g>
   </g>
   <g class="st22">
    <g class="st3">
     <polygon class="st21" points="1176.1 -1439.4 1236.9 -1478.2 1323.3 -1469.3 1262.6 -1430.6"/>
     <polygon class="st6" points="1262.6 -1430.6 1323.3 -1469.3 1340.2 -1369.6 1279.4 -1330.8"/>
     <polygon class="st11" points="1176.1 -1439.4 1262.6 -1430.6 1279.4 -1330.8 1193 -1339.7"/>
    </g>
   </g>
   <rect class="st1" y="-2210.6" width="759.71" height="750.56"/>
  </pattern>
  <clipPath id="SVGID_2_">
   <use xlink:href="#SVGID_1_"/>
  </clipPath>
  <linearGradient id="SVGID_4_" x1="-531.1" x2="878.3" y1="558.34" y2="-229.63" gradientUnits="userSpaceOnUse">
   <stop stop-color="#E51253" offset="0"/>
   <stop stop-color="#4D7AD5" offset="1"/>
  </linearGradient>
  <path id="SVGID_1_" d="m534 164.71h-508c-13.81 0-25-11.19-25-25v-114.42c0-13.81 11.19-25 25-25h508c13.81 0 25 11.19 25 25v114.41c0 13.81-11.19 25.01-25 25.01z"/>
 </defs>
 <g transform="translate(9.4535 -126.67)">
  <text transform="scale(.26458)" font-family="'Segoe UI'" font-size="40px" letter-spacing="0px" word-spacing="0px" style="line-height:1.25;shape-inside:url(#rect3077);white-space:pre" xml:space="preserve"/>
  <g transform="matrix(.48485 0 0 .48485 -36.771 74.439)" stroke-width="2.0625">
   <g transform="matrix(.26458 0 0 .26458 56.342 107.73)" stroke-width="2.0625">
    <use fill="#606060" stroke-width="2.0625" xlink:href="#SVGID_1_"/>
    <clipPath>
     <use xlink:href="#SVGID_1_"/>
    </clipPath>
    <g stroke-width="2.0625">
     <rect class="st25" x="-69.19" y="-30.59" width="698.39" height="226.19" clip-path="url(#SVGID_2_)" fill="url(#SVGID_3_)"/>
     <rect class="st26" x="-64.84" y="-10.67" width="689.26" height="231.3" clip-path="url(#SVGID_2_)" fill="url(#SVGID_4_)"/>
     <path class="st27" d="m165.42 115.92-7.11-95.54-86.32-41.62 3.39 45.27 1.03 13.84-13.7 9.32-14.92-7.19-1.03-13.84-3.36-45.27-79.2 53.94 7.11 95.54 49.01-33.37 14.92 7.19 1.23 16.54-11.48 7.81-37.52 25.55 86.31 41.61 79.18-53.93-53.38-25.74-1.25-16.53 13.7-9.32zm-132.13-114.58 1.32 17.68-22.47 15.3 51.46 24.81 47.23-32.16-24.5-11.81-1.31-17.68 57.25 27.6-77.29 52.64-84.23-40.61zm-23.07 151.27 14.65-9.98 24.5 11.81-4.25-57-51.46-24.8 2.02 27.11-14.65 9.98-4.73-63.38 84.23 40.61 1.83 24.54 5.11 68.72zm81.59-1.33 22.46-15.31 15.97 7.7-52.52 35.78-4.18-55.9-2.79-37.35 36.65-24.96 40.65-27.67 4.71 63.38-15.97-7.7-2.01-27.11-47.23 32.16z" clip-path="url(#SVGID_2_)" fill="#fff"/>
     <path class="st28" d="m535 5c11.03 0 20 8.97 20 20v115c0 11.03-8.97 20-20 20h-510c-11.03 0-20-8.97-20-20v-115c0-11.03 8.97-20 20-20h510m0-5h-510c-13.81 0-25 11.19-25 25v115c0 13.81 11.19 25 25 25h510c13.81 0 25-11.19 25-25v-115c0-13.81-11.19-25-25-25z" fill="#fff"/>
     <g fill="#fff">
      <path class="st28" d="m224.22 60.43h4.74v9.09c-1.22 0.92-2.62 1.62-4.23 2.11-1.6 0.49-3.21 0.74-4.83 0.74-2.33 0-4.42-0.5-6.27-1.49-1.86-0.99-3.31-2.37-4.37-4.13s-1.58-3.75-1.58-5.97 0.53-4.21 1.58-5.97c1.06-1.76 2.52-3.14 4.4-4.13s3.99-1.49 6.34-1.49c1.96 0 3.75 0.33 5.35 0.99s2.95 1.62 4.03 2.88l-3.33 3.07c-1.6-1.69-3.53-2.53-5.79-2.53-1.43 0-2.7 0.3-3.81 0.9s-1.97 1.44-2.59 2.53-0.93 2.34-0.93 3.75c0 1.39 0.31 2.62 0.93 3.71s1.48 1.94 2.58 2.54c1.1 0.61 2.35 0.91 3.76 0.91 1.49 0 2.84-0.32 4.03-0.96v-6.55z"/>
      <path class="st28" d="m250.19 64.79h-13.03c0.23 1.07 0.79 1.91 1.66 2.53s1.96 0.93 3.27 0.93c0.9 0 1.69-0.13 2.38-0.4s1.34-0.69 1.94-1.26l2.66 2.88c-1.62 1.86-3.99 2.79-7.11 2.79-1.94 0-3.66-0.38-5.15-1.14s-2.65-1.81-3.46-3.15-1.22-2.87-1.22-4.58c0-1.69 0.4-3.21 1.2-4.56 0.8-1.36 1.9-2.41 3.3-3.17s2.96-1.14 4.69-1.14c1.69 0 3.21 0.36 4.58 1.09s2.44 1.77 3.22 3.12c0.78 1.36 1.17 2.93 1.17 4.72-0.01 0.06-0.04 0.51-0.1 1.34zm-11.69-5.54c-0.77 0.64-1.24 1.52-1.41 2.62h8.48c-0.17-1.09-0.64-1.96-1.41-2.61s-1.71-0.98-2.82-0.98c-1.12 0.01-2.07 0.33-2.84 0.97z"/>
      <path class="st28" d="m264.72 71.16c-0.49 0.36-1.09 0.63-1.81 0.82-0.72 0.18-1.47 0.27-2.26 0.27-2.05 0-3.63-0.52-4.75-1.57s-1.68-2.58-1.68-4.61v-7.08h-2.66v-3.84h2.66v-4.19h4.99v4.19h4.29v3.84h-4.29v7.01c0 0.73 0.19 1.29 0.56 1.68 0.37 0.4 0.9 0.59 1.58 0.59 0.79 0 1.46-0.21 2.02-0.64z"/>
      <path class="st28" d="m276.85 51.57c-0.58-0.53-0.86-1.2-0.86-1.99s0.29-1.45 0.86-1.98c0.58-0.53 1.32-0.8 2.24-0.8s1.66 0.26 2.24 0.77 0.86 1.15 0.86 1.92c0 0.83-0.29 1.52-0.86 2.06-0.58 0.54-1.32 0.82-2.24 0.82s-1.66-0.27-2.24-0.8zm-0.25 3.2h4.99v17.22h-4.99z"/>
      <path class="st28" d="m297.34 71.16c-0.49 0.36-1.09 0.63-1.81 0.82-0.72 0.18-1.47 0.27-2.26 0.27-2.05 0-3.63-0.52-4.75-1.57s-1.68-2.58-1.68-4.61v-7.08h-2.66v-3.84h2.66v-4.19h4.99v4.19h4.29v3.84h-4.29v7.01c0 0.73 0.19 1.29 0.56 1.68 0.37 0.4 0.9 0.59 1.58 0.59 0.79 0 1.46-0.21 2.02-0.64z"/>
      <path class="st28" d="m312.53 71.11c-1.44-0.76-2.57-1.81-3.38-3.15s-1.22-2.87-1.22-4.58 0.41-3.23 1.22-4.58c0.81-1.34 1.94-2.4 3.38-3.15 1.44-0.76 3.07-1.14 4.88-1.14s3.44 0.38 4.87 1.14 2.55 1.81 3.36 3.15 1.22 2.87 1.22 4.58-0.41 3.23-1.22 4.58c-0.81 1.34-1.93 2.4-3.36 3.15-1.43 0.76-3.05 1.14-4.87 1.14s-3.44-0.38-4.88-1.14zm8.03-4.26c0.82-0.86 1.23-2.02 1.23-3.47s-0.41-2.61-1.23-3.47-1.87-1.3-3.15-1.3-2.34 0.43-3.17 1.3c-0.83 0.86-1.25 2.02-1.25 3.47s0.42 2.61 1.25 3.47 1.89 1.3 3.17 1.3 2.33-0.43 3.15-1.3z"/>
      <path class="st28" d="m345.82 56.43c1.31 1.28 1.97 3.18 1.97 5.7v9.86h-4.99v-9.09c0-1.37-0.3-2.38-0.9-3.06-0.6-0.67-1.46-1.01-2.59-1.01-1.26 0-2.26 0.39-3.01 1.17s-1.12 1.94-1.12 3.47v8.52h-4.99v-17.22h4.77v2.02c0.66-0.73 1.48-1.29 2.46-1.68s2.06-0.59 3.23-0.59c2.14-0.01 3.86 0.63 5.17 1.91z"/>
      <path class="st28" d="m231.06 100.68c-1.71-0.64-3.91-1.27-6.6-1.91-2.59-0.57-4.51-1.15-5.77-1.74s-1.89-1.49-1.89-2.69c0-1.21 0.55-2.18 1.64-2.92s2.78-1.11 5.06-1.11c2.21 0 4.41 0.42 6.62 1.27 1.81 0.7 3.85-0.22 4.58-2.02l1.09-2.68c-1.61-1.01-3.49-1.78-5.64-2.32s-4.35-0.81-6.6-0.81c-3.22 0-5.95 0.49-8.18 1.46s-3.9 2.29-5.01 3.95-1.66 3.52-1.66 5.56c0 2.35 0.61 4.23 1.84 5.64 1.22 1.41 2.69 2.43 4.41 3.07 1.71 0.64 3.91 1.28 6.6 1.91 1.74 0.4 3.13 0.77 4.15 1.11s1.86 0.78 2.52 1.33c0.65 0.55 0.98 1.25 0.98 2.09 0 1.14-0.55 2.06-1.66 2.74-1.11 0.69-2.82 1.03-5.14 1.03-2.08 0-4.16-0.34-6.24-1.01l-2.69-0.87c-1.74-0.56-3.63 0.27-4.39 1.94l-1.08 2.4c1.58 1.21 3.67 2.19 6.27 2.95s5.3 1.13 8.08 1.13c3.22 0 5.96-0.49 8.21-1.46s3.94-2.29 5.06-3.95 1.69-3.5 1.69-5.51c0-2.35-0.61-4.21-1.84-5.59-1.23-1.35-2.7-2.35-4.41-2.99z"/>
      <rect class="st28" x="243.58" y="84.37" width="8.16" height="35.25"/>
      <path class="st28" d="m285.27 86.56c-2.94-1.46-6.32-2.19-10.15-2.19h-16.01v35.25h16.01c3.83 0 7.21-0.73 10.15-2.19s5.22-3.52 6.85-6.17 2.44-5.74 2.44-9.26-0.81-6.61-2.44-9.26c-1.63-2.67-3.92-4.72-6.85-6.18zm-2.12 23.41c-2.1 1.96-4.91 2.95-8.43 2.95h-7.45v-21.86h7.45c3.52 0 6.34 0.98 8.43 2.95 2.1 1.96 3.15 4.62 3.15 7.98s-1.05 6.02-3.15 7.98z"/>
      <polygon class="st28" points="308.12 104.91 325.87 104.91 325.87 98.56 308.12 98.56 308.12 90.91 327.31 90.91 327.31 84.37 300.02 84.37 300.02 119.61 327.31 119.61 327.31 113.07 308.12 113.07"/>
      <path class="st28" d="m368.52 111.33c1.68-2.77 2.52-5.88 2.52-9.34s-0.84-6.57-2.52-9.34-3.98-4.94-6.9-6.52-6.21-2.37-9.87-2.37-6.96 0.79-9.89 2.37c-2.94 1.58-5.24 3.75-6.9 6.52s-2.49 5.88-2.49 9.34 0.83 6.57 2.49 9.34 3.96 4.94 6.9 6.52 6.23 2.37 9.89 2.37 6.95-0.79 9.87-2.37c0.27-0.15 0.53-0.3 0.79-0.46l2.83 2.83h8.97l-7.01-7.01c0.48-0.59 0.92-1.22 1.32-1.88zm-7.01-3.82-4.45-4.45-4.48 4.49 4.46 4.46c-1.59 0.83-3.35 1.25-5.29 1.25-2.08 0-3.96-0.48-5.64-1.44s-3-2.29-3.95-4c-0.96-1.71-1.44-3.66-1.44-5.84s0.48-4.13 1.44-5.84 2.27-3.05 3.95-4c1.68-0.96 3.56-1.44 5.64-1.44s3.96 0.48 5.64 1.44 3 2.29 3.95 4c0.96 1.71 1.44 3.66 1.44 5.84 0 2.06-0.43 3.9-1.27 5.53z"/>
      <path class="st28" d="m400.74 103.8c0 3.26-0.67 5.65-2.01 7.18s-3.29 2.29-5.84 2.29c-5.24 0-7.85-3.15-7.85-9.47v-19.43h-8.16v19.74c0 5.17 1.4 9.15 4.2 11.93 2.8 2.79 6.72 4.18 11.76 4.18s8.95-1.39 11.76-4.18c2.8-2.79 4.2-6.76 4.2-11.93v-19.74h-8.06z"/>
      <polygon class="st28" points="422.8 104.91 440.54 104.91 440.54 98.56 422.8 98.56 422.8 90.91 441.98 90.91 441.98 84.37 414.69 84.37 414.69 119.61 441.98 119.61 441.98 113.07 422.8 113.07"/>
      <path class="st28" d="m469.99 100.68c-1.71-0.64-3.91-1.27-6.6-1.91-2.59-0.57-4.51-1.15-5.77-1.74s-1.89-1.49-1.89-2.69c0-1.21 0.55-2.18 1.64-2.92s2.78-1.11 5.06-1.11c2.21 0 4.41 0.42 6.62 1.27 1.81 0.7 3.85-0.22 4.58-2.02l1.09-2.68c-1.61-1.01-3.49-1.78-5.64-2.32s-4.35-0.81-6.6-0.81c-3.22 0-5.95 0.49-8.18 1.46s-3.9 2.29-5.01 3.95-1.66 3.52-1.66 5.56c0 2.35 0.61 4.23 1.84 5.64s2.69 2.43 4.41 3.07c1.71 0.64 3.91 1.28 6.6 1.91 1.74 0.4 3.13 0.77 4.15 1.11s1.86 0.78 2.52 1.33c0.65 0.55 0.98 1.25 0.98 2.09 0 1.14-0.55 2.06-1.66 2.74-1.11 0.69-2.82 1.03-5.14 1.03-2.08 0-4.16-0.34-6.24-1.01l-2.69-0.87c-1.74-0.56-3.63 0.27-4.39 1.94l-1.08 2.4c1.58 1.21 3.67 2.19 6.27 2.95s5.3 1.13 8.08 1.13c3.22 0 5.96-0.49 8.21-1.46s3.94-2.29 5.06-3.95 1.69-3.5 1.69-5.51c0-2.35-0.61-4.21-1.84-5.59-1.23-1.35-2.69-2.35-4.41-2.99z"/>
      <polygon class="st28" points="478.29 84.37 478.29 91.01 489.56 91.01 489.56 119.61 497.72 119.61 497.72 91.01 509 91.01 509 84.37"/>
     </g>
    </g>
   </g>
  </g>
  <g transform="translate(2.0535 -.76288)" stroke="#fff" stroke-width="1.774">
   <path class="st0" d="m22.791 152.02c-0.33203-0.2455-0.7175-0.41735-1.1335-0.50853-0.23662-0.0526-0.47706-0.0772-0.72132-0.0842-0.17936-7e-3 -0.36256-3e-3 -0.54193-3e-3h-2.5685c-0.17938 0-0.36257 0-0.54194 3e-3 -0.24426 7e-3 -0.48088 0.0316-0.72132 0.0842-0.416 0.0912-0.79765 0.26303-1.1297 0.50853-0.6717 0.4945-1.061 1.2415-1.061 2.0341 0 0.7926 0.38928 1.5396 1.061 2.0341 0.33204 0.2455 0.7175 0.41735 1.1335 0.50854 0.23662 0.0526 0.47706 0.0772 0.72132 0.0842 0.17938 7e-3 0.36257 3e-3 0.54194 3e-3h2.5685c0.17937 0 0.36256 0 0.54194-3e-3 0.24426-7e-3 0.48088-0.0316 0.72132-0.0842 0.416-0.0912 0.79765-0.26304 1.1297-0.50854 0.67171-0.4945 1.061-1.2415 1.061-2.0341 0-0.79262-0.38928-1.5396-1.061-2.0341zm-1.2556 2.7426c-0.12595 0.0807-0.26716 0.12976-0.416 0.1508-0.14885 0.0211-0.3015 0.0175-0.45035 0.0175h-3.1104c-0.15266 0-0.3015 3e-3 -0.45035-0.0175-0.15266-0.0211-0.29005-0.0701-0.416-0.1508-0.25189-0.16132-0.40455-0.42436-0.40455-0.70843 0-0.28408 0.15266-0.54711 0.40455-0.70845 0.12594-0.0807 0.26716-0.12976 0.416-0.15079 0.14884-0.0211 0.3015-0.0175 0.45035-0.0175h3.1104c0.15266 0 0.3015-3e-3 0.45035 0.0175 0.15266 0.0211 0.29005 0.0701 0.416 0.15079 0.25188 0.16134 0.40454 0.42437 0.40454 0.70845 0.0033 0.28407-0.14884 0.54711-0.40454 0.70843z" fill="#1c1e20" style="paint-order:markers stroke fill"/>
   <path d="m27.813 151.75 2.7131-0.35622 0.0017 2.523-2.7118 0.0149zm2.7118 2.4575 0.0025 2.5252-2.7118-0.35945-1.5e-4 -2.1827zm0.32889-2.8603 3.5973-0.50617v3.0437l-3.5973 0.0275zm3.5981 2.8841-8.06e-4 3.03-3.5973-0.48949-0.0042-2.5462z" style="paint-order:markers stroke fill"/>
  </g>
 </g>
</svg>
