<?xml version="1.0" encoding="UTF-8" standalone="no"?>
<svg
   width="202.66"
   height="116.62"
   version="1.1"
   viewBox="0 0 53.622 30.856"
   id="svg607"
   sodipodi:docname="get_on_github.svg"
   inkscape:version="1.2.1 (9c6d41e410, 2022-07-14, custom)"
   xmlns:inkscape="http://www.inkscape.org/namespaces/inkscape"
   xmlns:sodipodi="http://sodipodi.sourceforge.net/DTD/sodipodi-0.dtd"
   xmlns="http://www.w3.org/2000/svg"
   xmlns:svg="http://www.w3.org/2000/svg">
  <sodipodi:namedview
     id="namedview609"
     pagecolor="#505050"
     bordercolor="#ffffff"
     borderopacity="1"
     inkscape:showpageshadow="0"
     inkscape:pageopacity="0"
     inkscape:pagecheckerboard="1"
     inkscape:deskcolor="#505050"
     showgrid="false"
     inkscape:zoom="3.4002144"
     inkscape:cx="43.526668"
     inkscape:cy="47.938154"
     inkscape:window-width="3840"
     inkscape:window-height="2091"
     inkscape:window-x="1080"
     inkscape:window-y="32"
     inkscape:window-maximized="1"
     inkscape:current-layer="svg607" />
  <defs
     id="defs533">
    <clipPath
       id="clipPath5505">
      <path
         d="m-177.28 424.99h576v-576h-576z"
         id="path488" />
    </clipPath>
    <clipPath
       id="clipPath5535">
      <path
         d="m-333.26 388.25h576v-576h-576z"
         id="path491" />
    </clipPath>
    <clipPath
       id="clipPath5487">
      <path
         d="m-209.44 399.95h576v-576h-576z"
         id="path494" />
    </clipPath>
    <clipPath
       id="clipPath5517">
      <path
         d="m-208.22 458.61h576v-576h-576z"
         id="path497" />
    </clipPath>
    <clipPath
       id="clipPath5541">
      <path
         d="m-398.03 416.16h576v-576h-576z"
         id="path500" />
    </clipPath>
    <clipPath
       id="clipPath5547">
      <path
         d="m-437.58 464.41h576v-576h-576z"
         id="path503" />
    </clipPath>
    <clipPath
       id="clipPath5481">
      <path
         d="m-257.2 416.02h576v-576h-576z"
         id="path506" />
    </clipPath>
    <clipPath
       id="clipPath4285-3">
      <path
         d="m-350.61 334.43h530.97v-551.99h-530.97z"
         id="path509" />
    </clipPath>
    <clipPath
       id="clipPath3995-7">
      <path
         d="m-313.09 421.13h530.97v-551.99h-530.97z"
         id="path512" />
    </clipPath>
    <clipPath
       id="clipPath3862-3">
      <path
         d="m-315.54 423.86h530.97v-551.99h-530.97z"
         id="path515" />
    </clipPath>
    <clipPath
       id="clipPath4007-6">
      <path
         d="m-317.92 427.34h530.97v-551.99h-530.97z"
         id="path518" />
    </clipPath>
    <clipPath
       id="clipPath4219-9">
      <path
         d="m-321.18 430.7h530.97v-551.99h-530.97z"
         id="path521" />
    </clipPath>
    <clipPath
       id="clipPath4105-2">
      <path
         d="m-325.68 432.65h530.97v-551.99h-530.97z"
         id="path524" />
    </clipPath>
    <clipPath
       id="clipPath3905-0">
      <path
         d="m-330.62 433.01h530.97v-551.99h-530.97z"
         id="path527" />
    </clipPath>
    <clipPath
       id="clipPath3983-3">
      <path
         d="m-335.22 432.23h530.97v-551.99h-530.97z"
         id="path530" />
    </clipPath>
    <clipPath
       clipPathUnits="userSpaceOnUse"
       id="clipPath1027">
      <g
         id="g1031">
        <path
           fill="#ffffff"
           d="M 1,4 H 111 V 36 H 1 Z"
           id="path1029" />
      </g>
    </clipPath>
    <clipPath
       clipPathUnits="userSpaceOnUse"
       id="clipPath1021">
      <g
         id="g1025">
        <path
           fill="#ffffff"
           d="M 1,4 H 111 V 36 H 1 Z"
           id="path1023" />
      </g>
    </clipPath>
  </defs>
  <g
     transform="matrix(.80001 0 0 .80001 -74.902 .001408)"
     id="g591">
    <path
       d="m97.402 0.53c-1.7898 0-3.2453 1.4747-3.2453 3.288v18.906c0 1.8133 1.4555 3.288 3.2453 3.288h59.713c1.7898 0 3.2453-1.4747 3.2453-3.288v-18.906c0-1.8133-1.4555-3.288-3.2453-3.288z"
       stroke-linecap="round"
       stroke-linejoin="round"
       stroke-width="5.375"
       id="path535" />
    <g
       transform="translate(9.4535,-126.67)"
       fill="#fff"
       stroke-width="1.5625"
       id="g589">
      <path
         transform="matrix(.13874 0 0 -.13874 97.604 131.73)"
         d="m0 0c-33.347 0-60.388-27.035-60.388-60.388 0-26.68 17.303-49.316 41.297-57.301 3.018-0.559 4.126 1.31 4.126 2.905 0 1.439-0.056 6.197-0.082 11.243-16.8-3.653-20.345 7.125-20.345 7.125-2.747 6.979-6.705 8.836-6.705 8.836-5.479 3.748 0.413 3.671 0.413 3.671 6.064-0.426 9.257-6.224 9.257-6.224 5.386-9.231 14.127-6.562 17.573-5.019 0.543 3.902 2.107 6.567 3.834 8.075-13.413 1.526-27.513 6.705-27.513 29.844 0 6.592 2.359 11.979 6.222 16.208-0.627 1.522-2.694 7.664 0.586 15.982 0 0 5.071 1.622 16.61-6.191 4.817 1.338 9.983 2.009 15.115 2.033 5.132-0.024 10.302-0.695 15.128-2.033 11.526 7.813 16.59 6.191 16.59 6.191 3.287-8.318 1.22-14.46 0.593-15.982 3.872-4.229 6.214-9.616 6.214-16.208 0-23.195-14.127-28.301-27.574-29.796 2.166-1.874 4.096-5.549 4.096-11.183 0-8.08-0.069-14.583-0.069-16.572 0-1.608 1.086-3.491 4.147-2.898 23.982 7.994 41.263 30.622 41.263 57.294 0 33.353-27.037 60.388-60.388 60.388"
         clip-path="url(#clipPath4285-3)"
         fill-rule="evenodd"
         stroke-width="1.5625"
         id="path537" />
      <g
         stroke-width="1.25"
         id="g553">
        <path
           transform="matrix(.13874 0 0 -.13874 92.399 143.76)"
           d="m0 0c-0.133-0.301-0.605-0.391-1.035-0.184-0.439 0.197-0.684 0.606-0.542 0.907 0.13 0.308 0.602 0.394 1.04 0.188 0.438-0.197 0.688-0.61 0.537-0.911"
           clip-path="url(#clipPath3995-7)"
           id="path539" />
        <path
           transform="matrix(.13874 0 0 -.13874 92.738 144.14)"
           d="m0 0c-0.288-0.267-0.852-0.143-1.233 0.279-0.396 0.421-0.469 0.985-0.177 1.255 0.297 0.267 0.843 0.142 1.238-0.279 0.396-0.426 0.473-0.985 0.172-1.255"
           clip-path="url(#clipPath3862-3)"
           id="path541" />
        <path
           transform="matrix(.13874 0 0 -.13874 93.068 144.62)"
           d="m0 0c-0.37-0.258-0.976-0.017-1.35 0.52-0.37 0.538-0.37 1.182 9e-3 1.44 0.374 0.258 0.971 0.025 1.35-0.507 0.369-0.546 0.369-1.19-9e-3 -1.453"
           clip-path="url(#clipPath4007-6)"
           id="path543" />
        <path
           transform="matrix(.13874 0 0 -.13874 93.521 145.09)"
           d="m0 0c-0.331-0.365-1.036-0.267-1.552 0.231-0.528 0.487-0.675 1.178-0.344 1.543 0.336 0.366 1.045 0.263 1.565-0.231 0.524-0.486 0.683-1.182 0.331-1.543"
           clip-path="url(#clipPath4219-9)"
           id="path545" />
        <path
           transform="matrix(.13874 0 0 -.13874 94.145 145.36)"
           d="m0 0c-0.147-0.473-0.825-0.687-1.509-0.486-0.683 0.207-1.13 0.76-0.992 1.238 0.142 0.477 0.824 0.7 1.513 0.485 0.682-0.206 1.13-0.756 0.988-1.237"
           clip-path="url(#clipPath4105-2)"
           id="path547" />
        <path
           transform="matrix(.13874 0 0 -.13874 94.831 145.41)"
           d="m0 0c0.017-0.498-0.563-0.911-1.281-0.92-0.722-0.017-1.307 0.387-1.315 0.877 0 0.503 0.568 0.911 1.289 0.924 0.718 0.014 1.307-0.387 1.307-0.881"
           clip-path="url(#clipPath3905-0)"
           id="path549" />
        <path
           transform="matrix(.13874 0 0 -.13874 95.469 145.3)"
           d="m0 0c0.086-0.485-0.413-0.984-1.126-1.117-0.701-0.129-1.35 0.172-1.439 0.653-0.087 0.498 0.42 0.997 1.121 1.126 0.714 0.124 1.353-0.168 1.444-0.662"
           clip-path="url(#clipPath3983-3)"
           id="path551" />
      </g>
      <path
         class="st28"
         d="m147.19 127.47c1.7687 0 3.2071 1.4384 3.2071 3.2071v18.441c0 1.7687-1.4384 3.2071-3.2071 3.2071h-59.01c-1.7687 0-3.2071-1.4384-3.2071-3.2071v-18.441c0-1.7687 1.4384-3.2071 3.2071-3.2071h59.01m0-0.80176h-59.01c-2.2145 0-4.0088 1.7944-4.0088 4.0088v18.441c0 2.2145 1.7944 4.0088 4.0088 4.0088h59.01c2.2145 0 4.0088-1.7944 4.0088-4.0088v-18.441c0-2.2145-1.7944-4.0088-4.0088-4.0088z"
         stroke-width=".33072"
         id="path555" />
      <g
         stroke-width="1.25"
         id="g571">
        <path
           transform="matrix(.090034 0 0 -.090034 117.94 142.38)"
           d="m0 0h-30.267c-0.781 0-1.415-0.634-1.415-1.415v-14.798c0-0.781 0.634-1.417 1.415-1.417h11.807v-18.385s-2.651-0.904-9.981-0.904c-8.647 0-20.727 3.16-20.727 29.724 0 26.569 12.579 30.064 24.388 30.064 10.222 0 14.626-1.799 17.428-2.667 0.881-0.269 1.695 0.608 1.695 1.389l3.377 14.298c0 0.366-0.124 0.805-0.54 1.104-1.138 0.813-8.081 4.697-25.621 4.697-20.205 0-40.932-8.596-40.932-49.921 0-41.327 23.73-47.485 43.727-47.485 16.557 0 26.601 7.075 26.601 7.075 0.414 0.229 0.459 0.808 0.459 1.073v46.153c0 0.781-0.633 1.415-1.414 1.415"
           clip-path="url(#clipPath5505)"
           id="path557" />
        <path
           transform="matrix(.090034 0 0 -.090034 131.99 139.07)"
           d="m0 0c0 0.788-0.624 1.423-1.405 1.423h-17.042c-0.779 0-1.411-0.635-1.411-1.423 0-3e-3 4e-3 -32.934 4e-3 -32.934h-26.564v32.934c0 0.788-0.627 1.423-1.407 1.423h-17.041c-0.775 0-1.407-0.635-1.407-1.423v-89.177c0-0.787 0.632-1.427 1.407-1.427h17.041c0.78 0 1.407 0.64 1.407 1.427v38.145h26.564s-0.046-38.142-0.046-38.145c0-0.787 0.631-1.427 1.412-1.427h17.082c0.78 0 1.404 0.64 1.406 1.427z"
           clip-path="url(#clipPath5535)"
           id="path559" />
        <path
           transform="matrix(.090034 0 0 -.090034 120.84 140.13)"
           d="m0 0c0 6.136-4.92 11.095-10.99 11.095-6.064 0-10.987-4.959-10.987-11.095 0-6.131 4.923-11.104 10.987-11.104 6.07 0 10.99 4.973 10.99 11.104"
           clip-path="url(#clipPath5487)"
           id="path561" />
        <path
           transform="matrix(.090034 0 0 -.090034 120.73 145.41)"
           d="m0 0v41.164c0 0.782-0.63 1.421-1.41 1.421h-16.988c-0.78 0-1.477-0.804-1.477-1.585v-58.977c0-1.733 1.08-2.249 2.478-2.249h15.306c1.679 0 2.091 0.826 2.091 2.277z"
           clip-path="url(#clipPath5517)"
           id="path563" />
        <path
           transform="matrix(.090034 0 0 -.090034 137.82 141.59)"
           d="m0 0h-16.911c-0.776 0-1.407-0.64-1.407-1.427v-43.725s-4.297-3.144-10.395-3.144-7.716 2.767-7.716 8.737v38.132c0 0.787-0.63 1.427-1.406 1.427h-17.164c-0.774 0-1.409-0.64-1.409-1.427v-41.018c0-17.736 9.884-22.075 23.481-22.075 11.156 0 20.15 6.164 20.15 6.164s0.427-3.248 0.622-3.633c0.193-0.384 0.698-0.773 1.244-0.773l10.919 0.049c0.774 0 1.409 0.64 1.409 1.424l-6e-3 59.862c0 0.787-0.632 1.427-1.411 1.427"
           clip-path="url(#clipPath5541)"
           id="path565" />
        <path
           transform="matrix(.090034 0 0 -.090034 141.38 145.93)"
           d="m0 0c-5.866 0.179-9.845 2.841-9.845 2.841v28.24s3.925 2.406 8.741 2.836c6.09 0.546 11.958-1.294 11.958-15.821 0-15.32-2.648-18.343-10.854-18.096m6.67 50.245c-9.605 0-16.138-4.285-16.138-4.285v30.196c0 0.788-0.63 1.423-1.406 1.423h-17.091c-0.777 0-1.408-0.635-1.408-1.423v-89.177c0-0.787 0.631-1.426 1.41-1.426h11.858c0.534 0 0.938 0.275 1.237 0.757 0.295 0.479 0.72 4.112 0.72 4.112s6.988-6.623 20.217-6.623c15.532 0 24.439 7.878 24.439 35.366s-14.226 31.08-23.838 31.08"
           clip-path="url(#clipPath5547)"
           id="path567" />
        <path
           transform="matrix(.090034 0 0 -.090034 125.14 141.57)"
           d="m0 0h-12.784s-0.019 16.885-0.019 16.889c0 0.639-0.329 0.959-1.069 0.959h-17.42c-0.677 0-1.041-0.298-1.041-0.95v-17.452s-8.73-2.107-9.32-2.277c-0.588-0.171-1.021-0.713-1.021-1.359v-10.967c0-0.789 0.63-1.426 1.409-1.426h8.932v-26.384c0-19.596 13.746-21.521 23.021-21.521 4.239 0 9.309 1.361 10.146 1.67 0.506 0.186 0.801 0.711 0.801 1.279l0.014 12.064c0 0.787-0.665 1.424-1.413 1.424-0.745 0-2.651-0.303-4.613-0.303-6.279 0-8.407 2.919-8.407 6.699 0 3.776-1e-3 25.072-1e-3 25.072h12.785c0.779 0 1.411 0.637 1.411 1.426v13.736c0 0.787-0.632 1.421-1.411 1.421"
           clip-path="url(#clipPath5481)"
           id="path569" />
      </g>
      <g
         stroke-width=".33072"
         id="g587">
        <path
           class="st28"
           d="m114.35 134.59h0.76008v1.4576c-0.19564 0.14752-0.42013 0.25977-0.6783 0.33834-0.25657 0.0786-0.51474 0.11866-0.77451 0.11866-0.37362 0-0.70876-0.0802-1.0054-0.23892-0.29826-0.15875-0.53077-0.38004-0.70075-0.66226-0.16997-0.28222-0.25336-0.60133-0.25336-0.95731 0-0.35599 0.085-0.67509 0.25336-0.95731 0.16998-0.28223 0.40409-0.50351 0.70556-0.66226 0.30146-0.15875 0.63981-0.23893 1.0166-0.23893 0.31429 0 0.60132 0.0529 0.85789 0.15875 0.25656 0.10583 0.47304 0.25977 0.64622 0.46182l-0.53397 0.49228c-0.25657-0.27099-0.56605-0.40569-0.92845-0.40569-0.22931 0-0.43296 0.0481-0.61095 0.14432-0.17799 0.0962-0.31589 0.23091-0.41531 0.40569-0.0994 0.17479-0.14913 0.37523-0.14913 0.60133 0 0.22289 0.0497 0.42012 0.14913 0.59491 0.0994 0.17478 0.23732 0.31108 0.41371 0.4073 0.17639 0.0978 0.37683 0.14592 0.60293 0.14592 0.23893 0 0.4554-0.0513 0.64622-0.15394v-1.0503z"
           id="path573" />
        <path
           class="st28"
           d="m118.51 135.29h-2.0894c0.0369 0.17157 0.12668 0.30627 0.26619 0.40569 0.13951 0.0994 0.31429 0.14913 0.52436 0.14913 0.14432 0 0.27099-0.0209 0.38164-0.0641 0.11064-0.0433 0.21487-0.11065 0.31108-0.20205l0.42654 0.46182c-0.25977 0.29826-0.63981 0.44739-1.1401 0.44739-0.31108 0-0.58689-0.0609-0.82582-0.18281-0.23893-0.12187-0.42494-0.29024-0.55482-0.50511-0.12989-0.21487-0.19563-0.46022-0.19563-0.73442 0-0.271 0.0641-0.51473 0.19242-0.73121 0.12828-0.21808 0.30467-0.38645 0.52917-0.50832 0.22449-0.12187 0.47464-0.18281 0.75205-0.18281 0.271 0 0.51474 0.0577 0.73442 0.17479 0.21969 0.11706 0.39127 0.28383 0.51634 0.5003 0.12508 0.21808 0.18762 0.46984 0.18762 0.75687-2e-3 0.01-6e-3 0.0818-0.016 0.21488zm-1.8745-0.88836c-0.12347 0.10262-0.19884 0.24373-0.2261 0.42012h1.3598c-0.0273-0.17478-0.10263-0.31429-0.2261-0.41852s-0.27421-0.15715-0.4522-0.15715c-0.17959 2e-3 -0.33193 0.0529-0.4554 0.15555z"
           id="path575" />
        <path
           class="st28"
           d="m120.84 136.31c-0.0786 0.0577-0.17479 0.10102-0.29024 0.13149-0.11546 0.0289-0.23572 0.0433-0.3624 0.0433-0.32873 0-0.58208-0.0834-0.76168-0.25175-0.1796-0.16837-0.26939-0.41371-0.26939-0.73923v-1.1353h-0.42654v-0.61575h0.42654v-0.67188h0.80016v0.67188h0.68792v0.61575h-0.68792v1.1241c0 0.11706 0.0305 0.20686 0.0898 0.2694 0.0593 0.0641 0.14432 0.0946 0.25336 0.0946 0.12668 0 0.23411-0.0337 0.32391-0.10263z"
           id="path577" />
        <path
           class="st28"
           d="m122.79 133.17c-0.093-0.085-0.13791-0.19242-0.13791-0.3191s0.0465-0.23251 0.13791-0.3175c0.093-0.085 0.21166-0.12828 0.35919-0.12828 0.14752 0 0.26618 0.0417 0.35919 0.12347 0.093 0.0818 0.1379 0.1844 0.1379 0.30788 0 0.13309-0.0465 0.24373-0.1379 0.33032-0.093 0.0866-0.21167 0.13149-0.35919 0.13149-0.14753 0-0.26619-0.0433-0.35919-0.12828zm-0.0401 0.51313h0.80016v2.7613h-0.80016z"
           id="path579" />
        <path
           class="st28"
           d="m126.07 136.31c-0.0786 0.0577-0.17479 0.10102-0.29024 0.13149-0.11545 0.0289-0.23572 0.0433-0.3624 0.0433-0.32872 0-0.58208-0.0834-0.76168-0.25175-0.17959-0.16837-0.26939-0.41371-0.26939-0.73923v-1.1353h-0.42654v-0.61575h0.42654v-0.67188h0.80016v0.67188h0.68792v0.61575h-0.68792v1.1241c0 0.11706 0.0305 0.20686 0.0898 0.2694 0.0593 0.0641 0.14432 0.0946 0.25336 0.0946 0.12668 0 0.23411-0.0337 0.32391-0.10263z"
           id="path581" />
        <path
           class="st28"
           d="m128.51 136.3c-0.23091-0.12187-0.41211-0.29024-0.542-0.50511-0.12988-0.21488-0.19563-0.46022-0.19563-0.73442 0-0.27421 0.0658-0.51795 0.19563-0.73442 0.12989-0.21488 0.31109-0.38485 0.542-0.50512 0.23091-0.12186 0.49229-0.1828 0.78252-0.1828 0.29024 0 0.55162 0.0609 0.78093 0.1828 0.2293 0.12187 0.4089 0.29024 0.53878 0.50512 0.12989 0.21487 0.19564 0.46021 0.19564 0.73442 0 0.2742-0.0658 0.51794-0.19564 0.73442-0.12988 0.21487-0.30948 0.38484-0.53878 0.50511-0.22931 0.12187-0.48908 0.1828-0.78093 0.1828-0.29184 0-0.55161-0.0609-0.78252-0.1828zm1.2876-0.68311c0.13149-0.1379 0.19723-0.32391 0.19723-0.55642 0-0.23252-0.0657-0.41853-0.19723-0.55643-0.13149-0.1379-0.29986-0.20846-0.50512-0.20846-0.20525 0-0.37522 0.069-0.50832 0.20846-0.13309 0.1379-0.20044 0.32391-0.20044 0.55643 0 0.23251 0.0674 0.41852 0.20044 0.55642 0.1331 0.13791 0.30307 0.20846 0.50832 0.20846 0.20526 0 0.37363-0.069 0.50512-0.20846z"
           id="path583" />
        <path
           class="st28"
           d="m133.85 133.95c0.21006 0.20525 0.3159 0.50992 0.3159 0.91401v1.5811h-0.80017v-1.4576c0-0.21969-0.0481-0.38164-0.14432-0.49068-0.0962-0.10744-0.23411-0.16196-0.41531-0.16196-0.20205 0-0.3624 0.0625-0.48267 0.18761-0.12026 0.12508-0.17959 0.31109-0.17959 0.55643v1.3662h-0.80017v-2.7613h0.76489v0.32392c0.10583-0.11706 0.23732-0.20686 0.39447-0.2694 0.15715-0.0625 0.33033-0.0946 0.51794-0.0946 0.34316-2e-3 0.61897 0.10103 0.82903 0.30628z"
           id="path585" />
      </g>
    </g>
  </g>
  <g
     id="g3997"
     transform="translate(0.16945549)">
    <path
       class="st0"
       d="m 10.934369,24.265164 c -0.333434,-0.246809 -0.720533,-0.419577 -1.1382644,-0.511246 -0.237624,-0.05285 -0.479075,-0.07759 -0.724369,-0.08461 -0.180123,-0.0073 -0.364098,-0.0032 -0.544221,-0.0032 h -2.579332 c -0.180131,0 -0.364098,0 -0.544229,0.0032 -0.245286,0.0073 -0.48291,0.03174 -0.724369,0.08461 -0.417755,0.09167 -0.80102,0.264437 -1.134429,0.511246 -0.674538,0.497139 -1.0654811,1.248144 -1.0654811,2.044952 0,0.796831 0.3909261,1.547853 1.0654811,2.044951 0.333442,0.246809 0.720534,0.419569 1.138264,0.511246 0.237624,0.05285 0.479075,0.07759 0.724369,0.08462 0.180132,0.0073 0.364098,0.0032 0.544229,0.0032 h 2.579332 c 0.180132,0 0.364098,0 0.54423,-0.0032 0.245294,-0.0073 0.482909,-0.03174 0.724369,-0.08462 0.4177554,-0.09168 0.8010204,-0.264437 1.1344294,-0.511246 0.674546,-0.497138 1.065481,-1.248144 1.065481,-2.044951 0,-0.79684 -0.390927,-1.547854 -1.065481,-2.044952 z m -1.2609034,2.757164 c -0.126482,0.08109 -0.268287,0.130454 -0.417755,0.151603 -0.149476,0.02119 -0.302778,0.01764 -0.452254,0.01764 h -3.123578 c -0.153303,0 -0.302779,0.0032 -0.452255,-0.01764 -0.153302,-0.02119 -0.291281,-0.0705 -0.417755,-0.151603 -0.252956,-0.162181 -0.406259,-0.426626 -0.406259,-0.712212 0,-0.285594 0.153303,-0.550023 0.406259,-0.712221 0.126474,-0.08109 0.268288,-0.130454 0.417755,-0.151603 0.149476,-0.02119 0.302779,-0.01764 0.452255,-0.01764 h 3.123578 c 0.153302,0 0.302778,-0.0032 0.452254,0.01764 0.153303,0.02119 0.291273,0.0705 0.417755,0.151603 0.252948,0.162198 0.4062514,0.426627 0.4062514,0.712221 0.0033,0.285586 -0.1494684,0.550031 -0.4062514,0.712212 z"
       fill="#1c1e20"
       stroke-linejoin="round"
       style="stroke:#ffffff;stroke-width:1.77404;paint-order:markers stroke fill"
       id="path593" />
    <path
       d="m 25.990769,23.999123 2.724564,-0.35812 0.0017,2.536491 -2.723231,0.01498 z m 2.72323,2.470587 0.0025,2.538666 -2.72323,-0.361367 -1.5e-4,-2.194323 z m 0.330283,-2.875597 3.612549,-0.50887 v 3.059935 l -3.612549,0.02764 z m 3.613382,2.899445 -8.08e-4,3.046158 -3.612549,-0.492104 -0.0042,-2.559774 z"
       fill="#00080a"
       style="stroke:#ffffff;stroke-width:1.77404;paint-order:markers stroke fill"
       id="path595" />
    <path
       d="m 41.460292,25.252126 c -0.03927,0.02997 -0.731955,0.413744 -0.731955,1.267158 0,0.987107 0.881481,1.336365 0.907827,1.344985 -0.0042,0.02127 -0.140022,0.47827 -0.464735,0.943923 -0.289531,0.409756 -0.591918,0.818883 -1.051892,0.818883 -0.46,0 -0.578395,-0.262753 -1.109418,-0.262753 -0.517501,0 -0.701509,0.271406 -1.122257,0.271406 -0.420765,0 -0.714356,-0.379156 -1.051892,-0.844826 -0.391002,-0.546784 -0.706919,-1.396226 -0.706919,-2.20246 0,-1.2931 0.855053,-1.978967 1.696599,-1.978967 0.447161,0 0.819904,0.288696 1.100664,0.288696 0.267213,0 0.683926,-0.305986 1.192622,-0.305986 0.192796,0 0.885484,0.01732 1.34144,0.659868 z m -1.582965,-1.207297 c 0.210395,-0.245455 0.359213,-0.586036 0.359213,-0.926601 0,-0.04721 -0.0042,-0.09512 -0.01284,-0.133717 -0.342296,0.01265 -0.74953,0.22417 -0.995116,0.504221 -0.192804,0.215517 -0.372743,0.556097 -0.372743,0.901303 0,0.05188 0.0088,0.103778 0.01284,0.120407 0.02168,0.004 0.05678,0.0087 0.09199,0.0087 0.30713,0 0.693396,-0.202207 0.916664,-0.474273 z"
       stroke-linecap="round"
       stroke-linejoin="round"
       style="stroke:#ffffff;stroke-width:1.77404;paint-order:markers stroke fill"
       id="path597" />
    <g
       id="g3981"
       transform="translate(-1.0038697,-0.31185795)">
      <path
         d="m 48.247671,24.126458 -0.152319,1.541085 -0.671561,1.140668 -0.314651,1.118109 -0.789006,0.522888 -0.0812,0.359917 0.02076,0.654196 1.604891,0.456057 0.408168,-0.345076 1.588801,-0.03037 0.296417,0.448428 1.494009,-1.035206 -0.678173,-1.025537 -1.734367,-3.806629 z"
         fill="#ffffff"
         stroke-width="1.23181"
         style="paint-order:markers stroke fill"
         id="path601" />
      <path
         d="m 46.75533,29.5889 c 0.35341,0.0419 0.750498,0.269094 1.082823,0.309209 0.334101,0.04189 0.437489,-0.225797 0.437489,-0.225797 0,0 0.375962,-0.08341 0.771215,-0.09302 0.395637,-0.01104 0.770156,0.08166 0.770156,0.08166 0,0 0.07262,0.165073 0.208203,0.237157 0.135569,0.07348 0.42746,0.08341 0.614544,-0.11219 0.187435,-0.197019 0.687527,-0.445197 0.968354,-0.600329 0.282595,-0.155494 0.230738,-0.392619 0.05336,-0.464702 -0.177422,-0.07203 -0.322654,-0.185659 -0.311566,-0.403641 0.0097,-0.216185 -0.156679,-0.36032 -0.156679,-0.36032 0,0 0.145591,-0.4757 0.01,-0.869801 -0.135578,-0.392265 -0.582721,-1.02312 -0.926502,-1.497418 -0.343755,-0.4757 -0.05186,-1.024893 -0.364856,-1.726712 -0.313016,-0.702907 -1.124675,-0.661359 -1.562122,-0.361762 -0.437481,0.299628 -0.303354,1.042617 -0.282253,1.395179 0.02109,0.35074 0.0097,0.601714 -0.03076,0.691909 -0.04044,0.09158 -0.322654,0.424225 -0.510089,0.702907 -0.187084,0.280099 -0.322679,0.858361 -0.459674,1.097 -0.134152,0.237149 -0.04044,0.453342 -0.04044,0.453342 0,0 -0.09371,0.03191 -0.167767,0.187456 -0.07262,0.153713 -0.217857,0.227183 -0.47935,0.277263 -0.259701,0.05285 -0.259701,0.219037 -0.197098,0.405059 0.06294,0.185658 0,0.289678 -0.07262,0.526835 -0.07262,0.237109 0.290832,0.309168 0.645667,0.350717 z m 3.673743,-1.081692 c 0.185651,0.08058 0.452505,-0.03158 0.533708,-0.11219 0.08087,-0.08024 0.138079,-0.199516 0.138079,-0.199516 0,0 0.0812,0.04012 0.07295,0.167547 -0.0086,0.12923 0.05577,0.313479 0.177422,0.377384 0.121621,0.06357 0.307272,0.15228 0.211053,0.241033 -0.09803,0.08876 -0.640306,0.305308 -0.802346,0.474289 -0.160614,0.167902 -0.371659,0.305301 -0.500092,0.264832 -0.129825,-0.04012 -0.243235,-0.216193 -0.18741,-0.473927 0.05761,-0.256662 0.106232,-0.538196 0.098,-0.699007 -0.0086,-0.160804 -0.04044,-0.377352 0,-0.409321 0.04044,-0.03158 0.104814,-0.01635 0.104814,-0.01635 0,0 -0.03226,0.305002 0.153803,0.385215 z m -1.204794,-4.344495 c 0.178847,0 0.323013,0.176079 0.323013,0.392627 0,0.153714 -0.07262,0.286851 -0.178865,0.350757 -0.02684,-0.01104 -0.05477,-0.02344 -0.0855,-0.03626 0.06436,-0.03158 0.109091,-0.112166 0.109091,-0.205188 0,-0.121753 -0.07545,-0.221866 -0.170268,-0.221866 -0.09228,0 -0.16921,0.100088 -0.16921,0.221866 0,0.04439 0.01109,0.08875 0.02935,0.123549 -0.05578,-0.0224 -0.10624,-0.04157 -0.146658,-0.0568 -0.02109,-0.05293 -0.0336,-0.112552 -0.0336,-0.176079 1.7e-5,-0.216548 0.143807,-0.392643 0.322688,-0.392643 z m -0.442867,0.67665 c 0.08801,0.01523 0.329799,0.119279 0.419256,0.151224 0.08943,0.03053 0.188502,0.08732 0.178848,0.144135 -0.01109,0.05857 -0.05719,0.05857 -0.178848,0.132049 -0.120196,0.07211 -0.382748,0.232895 -0.466819,0.243892 -0.08371,0.01104 -0.131276,-0.03585 -0.220733,-0.09302 -0.08943,-0.05825 -0.257174,-0.194191 -0.214989,-0.266242 0,0 0.131276,-0.09976 0.188527,-0.15087 0.05728,-0.05293 0.205326,-0.177513 0.294758,-0.161166 z m -0.385616,-0.614154 c 0.140931,0 0.255766,0.166484 0.255766,0.37168 0,0.0373 -0.0042,0.07203 -0.01109,0.106848 -0.03502,0.01104 -0.07011,0.02908 -0.103756,0.05825 -0.01642,0.01386 -0.03185,0.02626 -0.04577,0.04012 0.02218,-0.04157 0.03076,-0.101168 0.02076,-0.163664 -0.01934,-0.110755 -0.09479,-0.192756 -0.168843,-0.181751 -0.07445,0.01241 -0.11877,0.113962 -0.100879,0.226152 0.01968,0.113599 0.09371,0.195584 0.169185,0.183169 0.0042,-0.0016 0.0083,-0.0032 0.01251,-0.004 -0.0361,0.0348 -0.06978,0.06534 -0.104814,0.09017 -0.101938,-0.04721 -0.177422,-0.188511 -0.177422,-0.355003 2.5e-5,-0.206597 0.113051,-0.371679 0.254348,-0.371679 z m -0.785171,2.685943 c 0.145232,-0.227191 0.238941,-0.723855 0.384174,-0.888896 0.146674,-0.164719 0.2597,-0.515814 0.208194,-0.670946 0,0 0.312999,0.37168 0.530856,0.310626 0.218199,-0.06252 0.708629,-0.424234 0.781236,-0.3621 0.07262,0.06244 0.69719,1.425713 0.760135,1.859889 0.06295,0.433813 -0.04185,0.765402 -0.04185,0.765402 0,0 -0.238941,-0.06252 -0.269722,0.08164 -0.03076,0.145552 -0.03076,0.672743 -0.03076,0.672743 0,0 -0.323012,0.443755 -0.823105,0.517224 -0.500084,0.07211 -0.750497,0.0195 -0.750497,0.0195 l -0.280802,-0.31915 c 0,0 0.218215,-0.0319 0.187435,-0.249573 -0.03076,-0.216185 -0.666785,-0.51583 -0.781262,-0.784924 -0.114426,-0.269102 -0.02109,-0.723854 0.125966,-0.951415 z m -1.236642,1.628017 c 0.02501,-0.106494 0.349116,-0.106494 0.473606,-0.181397 0.124489,-0.07493 0.149509,-0.290041 0.250046,-0.346833 0.09907,-0.05825 0.282227,0.148405 0.357711,0.264816 0.07403,0.1136 0.357729,0.610263 0.473623,0.733796 0.117328,0.124597 0.22501,0.289679 0.191378,0.438075 -0.03185,0.148372 -0.208177,0.256663 -0.208177,0.256663 -0.157747,0.04826 -0.597737,-0.140227 -0.797686,-0.223308 -0.199949,-0.08341 -0.708637,-0.108282 -0.774091,-0.181751 -0.06728,-0.07493 0.03218,-0.239985 0.05861,-0.396551 0.02359,-0.158322 -0.05044,-0.256662 -0.0251,-0.36351 z"
         stroke="#ffffff"
         stroke-linejoin="round"
         stroke-width="1.77404"
         style="paint-order:markers stroke fill"
         id="path603" />
    </g>
    <g
       id="g3971"
       transform="matrix(0.81522348,0,0,0.81522354,-32.195586,3.0397176)"
       style="stroke-width:1.22666">
      <path
         style="fill:#ffffff;stroke:#fbfbfb;stroke-width:2.33684;stroke-linecap:round;stroke-linejoin:round;stroke-dasharray:none;stroke-opacity:1"
         id="path3237"
         sodipodi:type="arc"
         sodipodi:cx="62.793045"
         sodipodi:cy="28.544819"
         sodipodi:rx="4.2420983"
         sodipodi:ry="4.2420988"
         sodipodi:start="0"
         sodipodi:end="6.2347699"
         sodipodi:open="true"
         sodipodi:arc-type="arc"
         d="m 67.035143,28.544819 a 4.2420983,4.2420988 0 0 1 -4.190753,4.241788 4.2420983,4.2420988 0 0 1 -4.2922,-4.139107 4.2420983,4.2420988 0 0 1 4.086852,-4.341984 4.2420983,4.2420988 0 0 1 4.39113,4.034" />
      <g
         id="g1086"
         transform="matrix(0.26459094,0,0,0.26459094,58.291551,23.252989)"
         style="stroke-width:1.22666">
        <path
           d="M 17.756,4.017 C 8.92,3.608 1.428,10.431 1.018,19.26 0.608,28.087 7.436,35.575 16.271,35.984 25.105,36.393 32.598,29.57 33.008,20.742 33.418,11.916 26.588,4.429 17.756,4.018 Z m -0.19,4.075 c 6.583,0.305 11.671,5.884 11.365,12.462 a 11.868,11.868 0 0 1 -1.333,4.953 L 20.142,16.044 A 116.587,116.587 0 0 0 19.823,15.64 11.97,11.97 0 0 0 10.665,11.281 L 10.57,11.28 c -0.625,0 -1.24,0.049 -1.838,0.14 A 11.892,11.892 0 0 1 17.567,8.092 Z M 16.46,31.91 C 9.877,31.605 4.789,26.026 5.095,19.449 5.149,18.291 5.367,17.18 5.725,16.136 L 5.787,16.09 a 8.096,8.096 0 0 1 11.147,1.516 l 5.55,7.038 2.975,3.777 a 11.907,11.907 0 0 1 -9,3.49 z"
           id="path829"
           style="fill:#000000;stroke-width:1.22666"
           clip-path="url(#clipPath1027)" />
        <path
           d="m 12.124,20.984 c 0.017,-0.026 0.033,-0.051 0.048,-0.078 l 0.03,-0.057 c 0.021,-0.04 0.04,-0.08 0.058,-0.12 l 0.01,-0.021 c 0.818545,-1.956336 -1.768025,-3.523351 -3.123,-1.892 l -0.02,0.023 C 9.100361,18.87201 9.075009,18.90603 9.051,18.941 8.996172,19.01597 8.9486236,19.095998 8.909,19.18 l -0.015,0.034 c -0.117984,0.245967 -0.179484,0.5152 -0.18,0.788 0.0021,1.851373 2.423578,2.548703 3.41,0.982 z"
           id="path831"
           style="fill:#000000;stroke-width:1.22666"
           clip-path="url(#clipPath1021)"
           sodipodi:nodetypes="cccccccccccc" />
      </g>
    </g>
  </g>
</svg>
