<svg width="202.66" height="116.62" version="1.1" viewBox="0 0 53.622 30.856" xmlns="http://www.w3.org/2000/svg">
 <defs>
  <clipPath id="clipPath5505">
   <path d="m-177.28 424.99h576v-576h-576z"/>
  </clipPath>
  <clipPath id="clipPath5535">
   <path d="m-333.26 388.25h576v-576h-576z"/>
  </clipPath>
  <clipPath id="clipPath5487">
   <path d="m-209.44 399.95h576v-576h-576z"/>
  </clipPath>
  <clipPath id="clipPath5517">
   <path d="m-208.22 458.61h576v-576h-576z"/>
  </clipPath>
  <clipPath id="clipPath5541">
   <path d="m-398.03 416.16h576v-576h-576z"/>
  </clipPath>
  <clipPath id="clipPath5547">
   <path d="m-437.58 464.41h576v-576h-576z"/>
  </clipPath>
  <clipPath id="clipPath5481">
   <path d="m-257.2 416.02h576v-576h-576z"/>
  </clipPath>
  <clipPath id="clipPath4285-3">
   <path d="m-350.61 334.43h530.97v-551.99h-530.97z"/>
  </clipPath>
  <clipPath id="clipPath3995-7">
   <path d="m-313.09 421.13h530.97v-551.99h-530.97z"/>
  </clipPath>
  <clipPath id="clipPath3862-3">
   <path d="m-315.54 423.86h530.97v-551.99h-530.97z"/>
  </clipPath>
  <clipPath id="clipPath4007-6">
   <path d="m-317.92 427.34h530.97v-551.99h-530.97z"/>
  </clipPath>
  <clipPath id="clipPath4219-9">
   <path d="m-321.18 430.7h530.97v-551.99h-530.97z"/>
  </clipPath>
  <clipPath id="clipPath4105-2">
   <path d="m-325.68 432.65h530.97v-551.99h-530.97z"/>
  </clipPath>
  <clipPath id="clipPath3905-0">
   <path d="m-330.62 433.01h530.97v-551.99h-530.97z"/>
  </clipPath>
  <clipPath id="clipPath3983-3">
   <path d="m-335.22 432.23h530.97v-551.99h-530.97z"/>
  </clipPath>
  <clipPath id="clipPath1027">
   <path d="m1 4h110v32h-110z" fill="#fff"/>
  </clipPath>
  <clipPath id="clipPath1021">
   <path d="m1 4h110v32h-110z" fill="#fff"/>
  </clipPath>
 </defs>
 <g transform="matrix(.80001 0 0 .80001 -74.902 .001408)">
  <path d="m97.402 0.53c-1.7898 0-3.2453 1.4747-3.2453 3.288v18.906c0 1.8133 1.4555 3.288 3.2453 3.288h59.713c1.7898 0 3.2453-1.4747 3.2453-3.288v-18.906c0-1.8133-1.4555-3.288-3.2453-3.288z" stroke-linecap="round" stroke-linejoin="round" stroke-width="5.375"/>
  <g transform="translate(9.4535,-126.67)" fill="#fff">
   <path transform="matrix(.13874 0 0 -.13874 97.604 131.73)" d="m0 0c-33.347 0-60.388-27.035-60.388-60.388 0-26.68 17.303-49.316 41.297-57.301 3.018-0.559 4.126 1.31 4.126 2.905 0 1.439-0.056 6.197-0.082 11.243-16.8-3.653-20.345 7.125-20.345 7.125-2.747 6.979-6.705 8.836-6.705 8.836-5.479 3.748 0.413 3.671 0.413 3.671 6.064-0.426 9.257-6.224 9.257-6.224 5.386-9.231 14.127-6.562 17.573-5.019 0.543 3.902 2.107 6.567 3.834 8.075-13.413 1.526-27.513 6.705-27.513 29.844 0 6.592 2.359 11.979 6.222 16.208-0.627 1.522-2.694 7.664 0.586 15.982 0 0 5.071 1.622 16.61-6.191 4.817 1.338 9.983 2.009 15.115 2.033 5.132-0.024 10.302-0.695 15.128-2.033 11.526 7.813 16.59 6.191 16.59 6.191 3.287-8.318 1.22-14.46 0.593-15.982 3.872-4.229 6.214-9.616 6.214-16.208 0-23.195-14.127-28.301-27.574-29.796 2.166-1.874 4.096-5.549 4.096-11.183 0-8.08-0.069-14.583-0.069-16.572 0-1.608 1.086-3.491 4.147-2.898 23.982 7.994 41.263 30.622 41.263 57.294 0 33.353-27.037 60.388-60.388 60.388" clip-path="url(#clipPath4285-3)" fill-rule="evenodd" stroke-width="1.5625"/>
   <g stroke-width="1.25">
    <path transform="matrix(.13874 0 0 -.13874 92.399 143.76)" d="m0 0c-0.133-0.301-0.605-0.391-1.035-0.184-0.439 0.197-0.684 0.606-0.542 0.907 0.13 0.308 0.602 0.394 1.04 0.188 0.438-0.197 0.688-0.61 0.537-0.911" clip-path="url(#clipPath3995-7)"/>
    <path transform="matrix(.13874 0 0 -.13874 92.738 144.14)" d="m0 0c-0.288-0.267-0.852-0.143-1.233 0.279-0.396 0.421-0.469 0.985-0.177 1.255 0.297 0.267 0.843 0.142 1.238-0.279 0.396-0.426 0.473-0.985 0.172-1.255" clip-path="url(#clipPath3862-3)"/>
    <path transform="matrix(.13874 0 0 -.13874 93.068 144.62)" d="m0 0c-0.37-0.258-0.976-0.017-1.35 0.52-0.37 0.538-0.37 1.182 9e-3 1.44 0.374 0.258 0.971 0.025 1.35-0.507 0.369-0.546 0.369-1.19-9e-3 -1.453" clip-path="url(#clipPath4007-6)"/>
    <path transform="matrix(.13874 0 0 -.13874 93.521 145.09)" d="m0 0c-0.331-0.365-1.036-0.267-1.552 0.231-0.528 0.487-0.675 1.178-0.344 1.543 0.336 0.366 1.045 0.263 1.565-0.231 0.524-0.486 0.683-1.182 0.331-1.543" clip-path="url(#clipPath4219-9)"/>
    <path transform="matrix(.13874 0 0 -.13874 94.145 145.36)" d="m0 0c-0.147-0.473-0.825-0.687-1.509-0.486-0.683 0.207-1.13 0.76-0.992 1.238 0.142 0.477 0.824 0.7 1.513 0.485 0.682-0.206 1.13-0.756 0.988-1.237" clip-path="url(#clipPath4105-2)"/>
    <path transform="matrix(.13874 0 0 -.13874 94.831 145.41)" d="m0 0c0.017-0.498-0.563-0.911-1.281-0.92-0.722-0.017-1.307 0.387-1.315 0.877 0 0.503 0.568 0.911 1.289 0.924 0.718 0.014 1.307-0.387 1.307-0.881" clip-path="url(#clipPath3905-0)"/>
    <path transform="matrix(.13874 0 0 -.13874 95.469 145.3)" d="m0 0c0.086-0.485-0.413-0.984-1.126-1.117-0.701-0.129-1.35 0.172-1.439 0.653-0.087 0.498 0.42 0.997 1.121 1.126 0.714 0.124 1.353-0.168 1.444-0.662" clip-path="url(#clipPath3983-3)"/>
   </g>
   <path class="st28" d="m147.19 127.47c1.7687 0 3.2071 1.4384 3.2071 3.2071v18.441c0 1.7687-1.4384 3.2071-3.2071 3.2071h-59.01c-1.7687 0-3.2071-1.4384-3.2071-3.2071v-18.441c0-1.7687 1.4384-3.2071 3.2071-3.2071h59.01m0-0.80176h-59.01c-2.2145 0-4.0088 1.7944-4.0088 4.0088v18.441c0 2.2145 1.7944 4.0088 4.0088 4.0088h59.01c2.2145 0 4.0088-1.7944 4.0088-4.0088v-18.441c0-2.2145-1.7944-4.0088-4.0088-4.0088z" stroke-width=".33072"/>
   <g stroke-width="1.25">
    <path transform="matrix(.090034 0 0 -.090034 117.94 142.38)" d="m0 0h-30.267c-0.781 0-1.415-0.634-1.415-1.415v-14.798c0-0.781 0.634-1.417 1.415-1.417h11.807v-18.385s-2.651-0.904-9.981-0.904c-8.647 0-20.727 3.16-20.727 29.724 0 26.569 12.579 30.064 24.388 30.064 10.222 0 14.626-1.799 17.428-2.667 0.881-0.269 1.695 0.608 1.695 1.389l3.377 14.298c0 0.366-0.124 0.805-0.54 1.104-1.138 0.813-8.081 4.697-25.621 4.697-20.205 0-40.932-8.596-40.932-49.921 0-41.327 23.73-47.485 43.727-47.485 16.557 0 26.601 7.075 26.601 7.075 0.414 0.229 0.459 0.808 0.459 1.073v46.153c0 0.781-0.633 1.415-1.414 1.415" clip-path="url(#clipPath5505)"/>
    <path transform="matrix(.090034 0 0 -.090034 131.99 139.07)" d="m0 0c0 0.788-0.624 1.423-1.405 1.423h-17.042c-0.779 0-1.411-0.635-1.411-1.423 0-3e-3 4e-3 -32.934 4e-3 -32.934h-26.564v32.934c0 0.788-0.627 1.423-1.407 1.423h-17.041c-0.775 0-1.407-0.635-1.407-1.423v-89.177c0-0.787 0.632-1.427 1.407-1.427h17.041c0.78 0 1.407 0.64 1.407 1.427v38.145h26.564s-0.046-38.142-0.046-38.145c0-0.787 0.631-1.427 1.412-1.427h17.082c0.78 0 1.404 0.64 1.406 1.427z" clip-path="url(#clipPath5535)"/>
    <path transform="matrix(.090034 0 0 -.090034 120.84 140.13)" d="m0 0c0 6.136-4.92 11.095-10.99 11.095-6.064 0-10.987-4.959-10.987-11.095 0-6.131 4.923-11.104 10.987-11.104 6.07 0 10.99 4.973 10.99 11.104" clip-path="url(#clipPath5487)"/>
    <path transform="matrix(.090034 0 0 -.090034 120.73 145.41)" d="m0 0v41.164c0 0.782-0.63 1.421-1.41 1.421h-16.988c-0.78 0-1.477-0.804-1.477-1.585v-58.977c0-1.733 1.08-2.249 2.478-2.249h15.306c1.679 0 2.091 0.826 2.091 2.277z" clip-path="url(#clipPath5517)"/>
    <path transform="matrix(.090034 0 0 -.090034 137.82 141.59)" d="m0 0h-16.911c-0.776 0-1.407-0.64-1.407-1.427v-43.725s-4.297-3.144-10.395-3.144-7.716 2.767-7.716 8.737v38.132c0 0.787-0.63 1.427-1.406 1.427h-17.164c-0.774 0-1.409-0.64-1.409-1.427v-41.018c0-17.736 9.884-22.075 23.481-22.075 11.156 0 20.15 6.164 20.15 6.164s0.427-3.248 0.622-3.633c0.193-0.384 0.698-0.773 1.244-0.773l10.919 0.049c0.774 0 1.409 0.64 1.409 1.424l-6e-3 59.862c0 0.787-0.632 1.427-1.411 1.427" clip-path="url(#clipPath5541)"/>
    <path transform="matrix(.090034 0 0 -.090034 141.38 145.93)" d="m0 0c-5.866 0.179-9.845 2.841-9.845 2.841v28.24s3.925 2.406 8.741 2.836c6.09 0.546 11.958-1.294 11.958-15.821 0-15.32-2.648-18.343-10.854-18.096m6.67 50.245c-9.605 0-16.138-4.285-16.138-4.285v30.196c0 0.788-0.63 1.423-1.406 1.423h-17.091c-0.777 0-1.408-0.635-1.408-1.423v-89.177c0-0.787 0.631-1.426 1.41-1.426h11.858c0.534 0 0.938 0.275 1.237 0.757 0.295 0.479 0.72 4.112 0.72 4.112s6.988-6.623 20.217-6.623c15.532 0 24.439 7.878 24.439 35.366s-14.226 31.08-23.838 31.08" clip-path="url(#clipPath5547)"/>
    <path transform="matrix(.090034 0 0 -.090034 125.14 141.57)" d="m0 0h-12.784s-0.019 16.885-0.019 16.889c0 0.639-0.329 0.959-1.069 0.959h-17.42c-0.677 0-1.041-0.298-1.041-0.95v-17.452s-8.73-2.107-9.32-2.277c-0.588-0.171-1.021-0.713-1.021-1.359v-10.967c0-0.789 0.63-1.426 1.409-1.426h8.932v-26.384c0-19.596 13.746-21.521 23.021-21.521 4.239 0 9.309 1.361 10.146 1.67 0.506 0.186 0.801 0.711 0.801 1.279l0.014 12.064c0 0.787-0.665 1.424-1.413 1.424-0.745 0-2.651-0.303-4.613-0.303-6.279 0-8.407 2.919-8.407 6.699 0 3.776-1e-3 25.072-1e-3 25.072h12.785c0.779 0 1.411 0.637 1.411 1.426v13.736c0 0.787-0.632 1.421-1.411 1.421" clip-path="url(#clipPath5481)"/>
   </g>
   <g stroke-width=".33072">
    <path class="st28" d="m114.35 134.59h0.76008v1.4576c-0.19564 0.14752-0.42013 0.25977-0.6783 0.33834-0.25657 0.0786-0.51474 0.11866-0.77451 0.11866-0.37362 0-0.70876-0.0802-1.0054-0.23892-0.29826-0.15875-0.53077-0.38004-0.70075-0.66226-0.16997-0.28222-0.25336-0.60133-0.25336-0.95731 0-0.35599 0.085-0.67509 0.25336-0.95731 0.16998-0.28223 0.40409-0.50351 0.70556-0.66226 0.30146-0.15875 0.63981-0.23893 1.0166-0.23893 0.31429 0 0.60132 0.0529 0.85789 0.15875 0.25656 0.10583 0.47304 0.25977 0.64622 0.46182l-0.53397 0.49228c-0.25657-0.27099-0.56605-0.40569-0.92845-0.40569-0.22931 0-0.43296 0.0481-0.61095 0.14432-0.17799 0.0962-0.31589 0.23091-0.41531 0.40569-0.0994 0.17479-0.14913 0.37523-0.14913 0.60133 0 0.22289 0.0497 0.42012 0.14913 0.59491 0.0994 0.17478 0.23732 0.31108 0.41371 0.4073 0.17639 0.0978 0.37683 0.14592 0.60293 0.14592 0.23893 0 0.4554-0.0513 0.64622-0.15394v-1.0503z"/>
    <path class="st28" d="m118.51 135.29h-2.0894c0.0369 0.17157 0.12668 0.30627 0.26619 0.40569 0.13951 0.0994 0.31429 0.14913 0.52436 0.14913 0.14432 0 0.27099-0.0209 0.38164-0.0641 0.11064-0.0433 0.21487-0.11065 0.31108-0.20205l0.42654 0.46182c-0.25977 0.29826-0.63981 0.44739-1.1401 0.44739-0.31108 0-0.58689-0.0609-0.82582-0.18281-0.23893-0.12187-0.42494-0.29024-0.55482-0.50511-0.12989-0.21487-0.19563-0.46022-0.19563-0.73442 0-0.271 0.0641-0.51473 0.19242-0.73121 0.12828-0.21808 0.30467-0.38645 0.52917-0.50832 0.22449-0.12187 0.47464-0.18281 0.75205-0.18281 0.271 0 0.51474 0.0577 0.73442 0.17479 0.21969 0.11706 0.39127 0.28383 0.51634 0.5003 0.12508 0.21808 0.18762 0.46984 0.18762 0.75687-2e-3 0.01-6e-3 0.0818-0.016 0.21488zm-1.8745-0.88836c-0.12347 0.10262-0.19884 0.24373-0.2261 0.42012h1.3598c-0.0273-0.17478-0.10263-0.31429-0.2261-0.41852s-0.27421-0.15715-0.4522-0.15715c-0.17959 2e-3 -0.33193 0.0529-0.4554 0.15555z"/>
    <path class="st28" d="m120.84 136.31c-0.0786 0.0577-0.17479 0.10102-0.29024 0.13149-0.11546 0.0289-0.23572 0.0433-0.3624 0.0433-0.32873 0-0.58208-0.0834-0.76168-0.25175-0.1796-0.16837-0.26939-0.41371-0.26939-0.73923v-1.1353h-0.42654v-0.61575h0.42654v-0.67188h0.80016v0.67188h0.68792v0.61575h-0.68792v1.1241c0 0.11706 0.0305 0.20686 0.0898 0.2694 0.0593 0.0641 0.14432 0.0946 0.25336 0.0946 0.12668 0 0.23411-0.0337 0.32391-0.10263z"/>
    <path class="st28" d="m122.79 133.17c-0.093-0.085-0.13791-0.19242-0.13791-0.3191s0.0465-0.23251 0.13791-0.3175c0.093-0.085 0.21166-0.12828 0.35919-0.12828 0.14752 0 0.26618 0.0417 0.35919 0.12347 0.093 0.0818 0.1379 0.1844 0.1379 0.30788 0 0.13309-0.0465 0.24373-0.1379 0.33032-0.093 0.0866-0.21167 0.13149-0.35919 0.13149-0.14753 0-0.26619-0.0433-0.35919-0.12828zm-0.0401 0.51313h0.80016v2.7613h-0.80016z"/>
    <path class="st28" d="m126.07 136.31c-0.0786 0.0577-0.17479 0.10102-0.29024 0.13149-0.11545 0.0289-0.23572 0.0433-0.3624 0.0433-0.32872 0-0.58208-0.0834-0.76168-0.25175-0.17959-0.16837-0.26939-0.41371-0.26939-0.73923v-1.1353h-0.42654v-0.61575h0.42654v-0.67188h0.80016v0.67188h0.68792v0.61575h-0.68792v1.1241c0 0.11706 0.0305 0.20686 0.0898 0.2694 0.0593 0.0641 0.14432 0.0946 0.25336 0.0946 0.12668 0 0.23411-0.0337 0.32391-0.10263z"/>
    <path class="st28" d="m128.51 136.3c-0.23091-0.12187-0.41211-0.29024-0.542-0.50511-0.12988-0.21488-0.19563-0.46022-0.19563-0.73442 0-0.27421 0.0658-0.51795 0.19563-0.73442 0.12989-0.21488 0.31109-0.38485 0.542-0.50512 0.23091-0.12186 0.49229-0.1828 0.78252-0.1828 0.29024 0 0.55162 0.0609 0.78093 0.1828 0.2293 0.12187 0.4089 0.29024 0.53878 0.50512 0.12989 0.21487 0.19564 0.46021 0.19564 0.73442 0 0.2742-0.0658 0.51794-0.19564 0.73442-0.12988 0.21487-0.30948 0.38484-0.53878 0.50511-0.22931 0.12187-0.48908 0.1828-0.78093 0.1828-0.29184 0-0.55161-0.0609-0.78252-0.1828zm1.2876-0.68311c0.13149-0.1379 0.19723-0.32391 0.19723-0.55642 0-0.23252-0.0657-0.41853-0.19723-0.55643-0.13149-0.1379-0.29986-0.20846-0.50512-0.20846-0.20525 0-0.37522 0.069-0.50832 0.20846-0.13309 0.1379-0.20044 0.32391-0.20044 0.55643 0 0.23251 0.0674 0.41852 0.20044 0.55642 0.1331 0.13791 0.30307 0.20846 0.50832 0.20846 0.20526 0 0.37363-0.069 0.50512-0.20846z"/>
    <path class="st28" d="m133.85 133.95c0.21006 0.20525 0.3159 0.50992 0.3159 0.91401v1.5811h-0.80017v-1.4576c0-0.21969-0.0481-0.38164-0.14432-0.49068-0.0962-0.10744-0.23411-0.16196-0.41531-0.16196-0.20205 0-0.3624 0.0625-0.48267 0.18761-0.12026 0.12508-0.17959 0.31109-0.17959 0.55643v1.3662h-0.80017v-2.7613h0.76489v0.32392c0.10583-0.11706 0.23732-0.20686 0.39447-0.2694 0.15715-0.0625 0.33033-0.0946 0.51794-0.0946 0.34316-2e-3 0.61897 0.10103 0.82903 0.30628z"/>
   </g>
  </g>
 </g>
 <g transform="translate(.16946)">
  <g stroke="#fff" stroke-width="1.774">
   <path class="st0" d="m10.934 24.265c-0.33343-0.24681-0.72053-0.41958-1.1383-0.51125-0.23762-0.05285-0.47908-0.07759-0.72437-0.08461-0.18012-0.0073-0.3641-0.0032-0.54422-0.0032h-2.5793c-0.18013 0-0.3641 0-0.54423 0.0032-0.24529 0.0073-0.48291 0.03174-0.72437 0.08461-0.41776 0.09167-0.80102 0.26444-1.1344 0.51125-0.67454 0.49714-1.0655 1.2481-1.0655 2.045 0 0.79683 0.39093 1.5479 1.0655 2.045 0.33344 0.24681 0.72053 0.41957 1.1383 0.51125 0.23762 0.05285 0.47908 0.07759 0.72437 0.08462 0.18013 0.0073 0.3641 0.0032 0.54423 0.0032h2.5793c0.18013 0 0.3641 0 0.54423-0.0032 0.24529-0.0073 0.48291-0.03174 0.72437-0.08462 0.41776-0.09168 0.80102-0.26444 1.1344-0.51125 0.67455-0.49714 1.0655-1.2481 1.0655-2.045 0-0.79684-0.39093-1.5479-1.0655-2.045zm-1.2609 2.7572c-0.12648 0.08109-0.26829 0.13045-0.41776 0.1516-0.14948 0.02119-0.30278 0.01764-0.45225 0.01764h-3.1236c-0.1533 0-0.30278 0.0032-0.45226-0.01764-0.1533-0.02119-0.29128-0.0705-0.41776-0.1516-0.25296-0.16218-0.40626-0.42663-0.40626-0.71221 0-0.28559 0.1533-0.55002 0.40626-0.71222 0.12647-0.08109 0.26829-0.13045 0.41776-0.1516 0.14948-0.02119 0.30278-0.01764 0.45226-0.01764h3.1236c0.1533 0 0.30278-0.0032 0.45225 0.01764 0.1533 0.02119 0.29127 0.0705 0.41776 0.1516 0.25295 0.1622 0.40625 0.42663 0.40625 0.71222 0.0033 0.28559-0.14947 0.55003-0.40625 0.71221z" fill="#1c1e20" stroke-linejoin="round" style="paint-order:markers stroke fill"/>
   <path d="m25.991 23.999 2.7246-0.35812 0.0017 2.5365-2.7232 0.01498zm2.7232 2.4706 0.0025 2.5387-2.7232-0.36137-1.5e-4 -2.1943zm0.33028-2.8756 3.6125-0.50887v3.0599l-3.6125 0.02764zm3.6134 2.8994-8.08e-4 3.0462-3.6125-0.4921-0.0042-2.5598z" fill="#00080a" style="paint-order:markers stroke fill"/>
   <path d="m41.46 25.252c-0.03927 0.02997-0.73196 0.41374-0.73196 1.2672 0 0.98711 0.88148 1.3364 0.90783 1.345-0.0042 0.02127-0.14002 0.47827-0.46474 0.94392-0.28953 0.40976-0.59192 0.81888-1.0519 0.81888-0.46 0-0.5784-0.26275-1.1094-0.26275-0.5175 0-0.70151 0.27141-1.1223 0.27141-0.42076 0-0.71436-0.37916-1.0519-0.84483-0.391-0.54678-0.70692-1.3962-0.70692-2.2025 0-1.2931 0.85505-1.979 1.6966-1.979 0.44716 0 0.8199 0.2887 1.1007 0.2887 0.26721 0 0.68393-0.30599 1.1926-0.30599 0.1928 0 0.88548 0.01732 1.3414 0.65987zm-1.583-1.2073c0.2104-0.24546 0.35921-0.58604 0.35921-0.9266 0-0.04721-0.0042-0.09512-0.01284-0.13372-0.3423 0.01265-0.74953 0.22417-0.99512 0.50422-0.1928 0.21552-0.37274 0.5561-0.37274 0.9013 0 0.05188 0.0088 0.10378 0.01284 0.12041 0.02168 4e-3 0.05678 0.0087 0.09199 0.0087 0.30713 0 0.6934-0.20221 0.91666-0.47427z" stroke-linecap="round" stroke-linejoin="round" style="paint-order:markers stroke fill"/>
  </g>
  <g transform="translate(-1.0039 -.31186)">
   <path d="m48.248 24.126-0.15232 1.5411-0.67156 1.1407-0.31465 1.1181-0.78901 0.52289-0.0812 0.35992 0.02076 0.6542 1.6049 0.45606 0.40817-0.34508 1.5888-0.03037 0.29642 0.44843 1.494-1.0352-0.67817-1.0255-1.7344-3.8066z" fill="#fff" stroke-width="1.2318" style="paint-order:markers stroke fill"/>
   <path d="m46.755 29.589c0.35341 0.0419 0.7505 0.26909 1.0828 0.30921 0.3341 0.04189 0.43749-0.2258 0.43749-0.2258s0.37596-0.08341 0.77122-0.09302c0.39564-0.01104 0.77016 0.08166 0.77016 0.08166s0.07262 0.16507 0.2082 0.23716c0.13557 0.07348 0.42746 0.08341 0.61454-0.11219 0.18744-0.19702 0.68753-0.4452 0.96835-0.60033 0.2826-0.15549 0.23074-0.39262 0.05336-0.4647-0.17742-0.07203-0.32265-0.18566-0.31157-0.40364 0.0097-0.21618-0.15668-0.36032-0.15668-0.36032s0.14559-0.4757 0.01-0.8698c-0.13558-0.39226-0.58272-1.0231-0.9265-1.4974-0.34376-0.4757-0.05186-1.0249-0.36486-1.7267-0.31302-0.70291-1.1247-0.66136-1.5621-0.36176-0.43748 0.29963-0.30335 1.0426-0.28225 1.3952 0.02109 0.35074 0.0097 0.60171-0.03076 0.69191-0.04044 0.09158-0.32265 0.42422-0.51009 0.70291-0.18708 0.2801-0.32268 0.85836-0.45967 1.097-0.13415 0.23715-0.04044 0.45334-0.04044 0.45334s-0.09371 0.03191-0.16777 0.18746c-0.07262 0.15371-0.21786 0.22718-0.47935 0.27726-0.2597 0.05285-0.2597 0.21904-0.1971 0.40506 0.06294 0.18566 0 0.28968-0.07262 0.52684-0.07262 0.23711 0.29083 0.30917 0.64567 0.35072zm3.6737-1.0817c0.18565 0.08058 0.4525-0.03158 0.53371-0.11219 0.08087-0.08024 0.13808-0.19952 0.13808-0.19952s0.0812 0.04012 0.07295 0.16755c-0.0086 0.12923 0.05577 0.31348 0.17742 0.37738 0.12162 0.06357 0.30727 0.15228 0.21105 0.24103-0.09803 0.08876-0.64031 0.30531-0.80235 0.47429-0.16061 0.1679-0.37166 0.3053-0.50009 0.26483-0.12982-0.04012-0.24324-0.21619-0.18741-0.47393 0.05761-0.25666 0.10623-0.5382 0.098-0.69901-0.0086-0.1608-0.04044-0.37735 0-0.40932 0.04044-0.03158 0.10481-0.01635 0.10481-0.01635s-0.03226 0.305 0.1538 0.38522zm-1.2048-4.3445c0.17885 0 0.32301 0.17608 0.32301 0.39263 0 0.15371-0.07262 0.28685-0.17886 0.35076-0.02684-0.01104-0.05477-0.02344-0.0855-0.03626 0.06436-0.03158 0.10909-0.11217 0.10909-0.20519 0-0.12175-0.07545-0.22187-0.17027-0.22187-0.09228 0-0.16921 0.10009-0.16921 0.22187 0 0.04439 0.01109 0.08875 0.02935 0.12355-0.05578-0.0224-0.10624-0.04157-0.14666-0.0568-0.02109-0.05293-0.0336-0.11255-0.0336-0.17608 1.7e-5 -0.21655 0.14381-0.39264 0.32269-0.39264zm-0.44287 0.67665c0.08801 0.01523 0.3298 0.11928 0.41926 0.15122 0.08943 0.03053 0.1885 0.08732 0.17885 0.14414-0.01109 0.05857-0.05719 0.05857-0.17885 0.13205-0.1202 0.07211-0.38275 0.2329-0.46682 0.24389-0.08371 0.01104-0.13128-0.03585-0.22073-0.09302-0.08943-0.05825-0.25717-0.19419-0.21499-0.26624 0 0 0.13128-0.09976 0.18853-0.15087 0.05728-0.05293 0.20533-0.17751 0.29476-0.16117zm-0.38562-0.61415c0.14093 0 0.25577 0.16648 0.25577 0.37168 0 0.0373-0.0042 0.07203-0.01109 0.10685-0.03502 0.01104-0.07011 0.02908-0.10376 0.05825-0.01642 0.01386-0.03185 0.02626-0.04577 0.04012 0.02218-0.04157 0.03076-0.10117 0.02076-0.16366-0.01934-0.11076-0.09479-0.19276-0.16884-0.18175-0.07445 0.01241-0.11877 0.11396-0.10088 0.22615 0.01968 0.1136 0.09371 0.19558 0.16918 0.18317 0.0042-0.0016 0.0083-0.0032 0.01251-4e-3 -0.0361 0.0348-0.06978 0.06534-0.10481 0.09017-0.10194-0.04721-0.17742-0.18851-0.17742-0.355 2.5e-5 -0.2066 0.11305-0.37168 0.25435-0.37168zm-0.78517 2.6859c0.14523-0.22719 0.23894-0.72386 0.38417-0.8889 0.14667-0.16472 0.2597-0.51581 0.20819-0.67095 0 0 0.313 0.37168 0.53086 0.31063 0.2182-0.06252 0.70863-0.42423 0.78124-0.3621 0.07262 0.06244 0.69719 1.4257 0.76014 1.8599 0.06295 0.43381-0.04185 0.7654-0.04185 0.7654s-0.23894-0.06252-0.26972 0.08164c-0.03076 0.14555-0.03076 0.67274-0.03076 0.67274s-0.32301 0.44376-0.8231 0.51722c-0.50008 0.07211-0.7505 0.0195-0.7505 0.0195l-0.2808-0.31915s0.21822-0.0319 0.18744-0.24957c-0.03076-0.21618-0.66678-0.51583-0.78126-0.78492-0.11443-0.2691-0.02109-0.72385 0.12597-0.95142zm-1.2366 1.628c0.02501-0.10649 0.34912-0.10649 0.47361-0.1814 0.12449-0.07493 0.14951-0.29004 0.25005-0.34683 0.09907-0.05825 0.28223 0.1484 0.35771 0.26482 0.07403 0.1136 0.35773 0.61026 0.47362 0.7338 0.11733 0.1246 0.22501 0.28968 0.19138 0.43808-0.03185 0.14837-0.20818 0.25666-0.20818 0.25666-0.15775 0.04826-0.59774-0.14023-0.79769-0.22331-0.19995-0.08341-0.70864-0.10828-0.77409-0.18175-0.06728-0.07493 0.03218-0.23998 0.05861-0.39655 0.02359-0.15832-0.05044-0.25666-0.0251-0.36351z" stroke="#fff" stroke-linejoin="round" stroke-width="1.774" style="paint-order:markers stroke fill"/>
  </g>
  <g transform="matrix(.81522 0 0 .81522 -32.196 3.0397)">
   <path d="m67.035 28.545a4.2421 4.2421 0 0 1-4.1908 4.2418 4.2421 4.2421 0 0 1-4.2922-4.1391 4.2421 4.2421 0 0 1 4.0869-4.342 4.2421 4.2421 0 0 1 4.3911 4.034" fill="#fff" stroke="#fbfbfb" stroke-linecap="round" stroke-linejoin="round" stroke-width="2.3368"/>
   <g transform="matrix(.26459 0 0 .26459 58.292 23.253)" stroke-width="1.2267">
    <path d="m17.756 4.017c-8.836-0.409-16.328 6.414-16.738 15.243-0.41 8.827 6.418 16.315 15.253 16.724 8.834 0.409 16.327-6.414 16.737-15.242 0.41-8.826-6.42-16.313-15.252-16.724zm-0.19 4.075c6.583 0.305 11.671 5.884 11.365 12.462a11.868 11.868 0 0 1-1.333 4.953l-7.456-9.463a116.59 116.59 0 0 0-0.319-0.404 11.97 11.97 0 0 0-9.158-4.359l-0.095-1e-3c-0.625 0-1.24 0.049-1.838 0.14a11.892 11.892 0 0 1 8.835-3.328zm-1.106 23.818c-6.583-0.305-11.671-5.884-11.365-12.461 0.054-1.158 0.272-2.269 0.63-3.313l0.062-0.046a8.096 8.096 0 0 1 11.147 1.516l5.55 7.038 2.975 3.777a11.907 11.907 0 0 1-9 3.49z" clip-path="url(#clipPath1027)"/>
    <path d="m12.124 20.984c0.017-0.026 0.033-0.051 0.048-0.078l0.03-0.057c0.021-0.04 0.04-0.08 0.058-0.12l0.01-0.021c0.81854-1.9563-1.768-3.5234-3.123-1.892l-0.02 0.023c-0.026639 0.03301-0.051991 0.06703-0.076 0.102-0.054828 0.07497-0.10238 0.155-0.142 0.239l-0.015 0.034c-0.11798 0.24597-0.17948 0.5152-0.18 0.788 0.0021 1.8514 2.4236 2.5487 3.41 0.982z" clip-path="url(#clipPath1021)"/>
   </g>
  </g>
 </g>
</svg>
